<svg xmlns="http://www.w3.org/2000/svg">
<defs>
<font id="BlackBerryLove-Medium" horiz-adv-x="520" >
  <font-face 
    font-family="BlackBerryLove"
    font-weight="600"
    font-stretch="normal"
    units-per-em="1000"
    panose-1="1 0 0 0 0 0 0 0 0 0"
    ascent="800"
    descent="-200"
    x-height="434"
    cap-height="598"
    bbox="-2 -181 911 745"
    underline-thickness="50"
    underline-position="-50"
    unicode-range="U+0020-2122"
  />
<missing-glyph horiz-adv-x="638" 
d="M20 0v598h598v-598h-598zM132 37q7 -14 18 -14q2 0 4 1q15 3 17 21q17 5 29 11q26 12 44 42q19 33 19 65q0 46 -25 67q-16 14 -38 14q-14 0 -32 -6q-14 -6 -20 -10q-9 13 -17 -1h-2q0 -17 -1 -59q-1 -25 -1 -46v-26q1 -31 5 -59zM166 538l-20 -1q-1 -12 -1 -27
q0 -70 16 -199v-5q0 -1 1 -3v-2q5 -10 13.5 -12.5t15.5 2.5t8 15h2l-1 1v2q1 4 1 10q-1 3 -5 9q-18 96 -21 118q10 -21 30 -57.5t24 -45.5q13 -31 17 -36q7 -7 13 -7q8 0 14 12q7 17 9 42v21q0 14 -1 25q-1 10 -1 21t1 22q1 17 7.5 52.5t7.5 54.5q-5 18 -20.5 17t-19.5 -18
q0 -19 -4.5 -53.5t-5.5 -48.5v-11q0 -12 1 -32q2 -31 2 -42l-25 50l-18 32q-12 20 -21 37t-15 33l-3 -1q0 4 -0.5 12.5t-0.5 12.5zM275 236l-4 -2q15 -45 18 -164q-5 -9 0 -20l3 -4q8 -8 16 -8q2 0 4 1q11 3 15 15l72 13q16 9 11.5 24.5t-22.5 13.5l-63 -27q-4 14 -5 21
l-6 51q7 0 23 2t24 2q18 5 18 20q0 19 -19 19h-4q-6 -3 -21.5 -8.5t-23.5 -10.5q-4 27 -15 53q12 10 34 10h7q17 4 18 19.5t-17 20.5q-19 -5 -27.5 -7.5t-19.5 -11t-16 -22.5zM411 239q0 -27 5 -58t12.5 -67.5t10.5 -57.5q7 -14 18 -14h1q12 1 18 15q3 12 3 21q-3 10 -11 14
l-12 48q32 -2 46 -2q16 9 11.5 24.5t-22.5 13.5q-2 -1 -17 -3.5t-24 -5.5q-10 45 -16 80q28 7 57 7q9 0 19 -1q18 4 18 21q0 14 -17 19q-65 -14 -75 -19q-14 14 -19.5 -1t-5.5 -34zM376 536l11 -16q14 6 36 8q-9 -40 -9 -62q0 -20 6 -66q6 -42 6 -65q3 -21 20 -21
q18 1 20 22q-3 21 -12 64t-11 64q-1 8 -1 20q0 18 2 44q33 0 45 5q13 7 13 17q0 5 -2 10q-6 12 -17 12q-5 0 -11 -3q-11 -5 -45.5 -10.5t-50.5 -22.5zM350 501l1 5l-10 3q-4 0 -10 -3q-8 -9 -14 -34t-7 -50v-6q0 -22 7 -40q8 -18 23 -18h2q33 2 42 48q4 20 4 35q0 22 -8 37

<glyph glyph-name=".notdef" horiz-adv-x="638" 
d="M20 0v598h598v-598h-598zM132 37q7 -14 18 -14q2 0 4 1q15 3 17 21q17 5 29 11q26 12 44 42q19 33 19 65q0 46 -25 67q-16 14 -38 14q-14 0 -32 -6q-14 -6 -20 -10q-9 13 -17 -1h-2q0 -17 -1 -59q-1 -25 -1 -46v-26q1 -31 5 -59zM166 538l-20 -1q-1 -12 -1 -27
q0 -70 16 -199v-5q0 -1 1 -3v-2q5 -10 13.5 -12.5t15.5 2.5t8 15h2l-1 1v2q1 4 1 10q-1 3 -5 9q-18 96 -21 118q10 -21 30 -57.5t24 -45.5q13 -31 17 -36q7 -7 13 -7q8 0 14 12q7 17 9 42v21q0 14 -1 25q-1 10 -1 21t1 22q1 17 7.5 52.5t7.5 54.5q-5 18 -20.5 17t-19.5 -18
q0 -19 -4.5 -53.5t-5.5 -48.5v-11q0 -12 1 -32q2 -31 2 -42l-25 50l-18 32q-12 20 -21 37t-15 33l-3 -1q0 4 -0.5 12.5t-0.5 12.5zM275 236l-4 -2q15 -45 18 -164q-5 -9 0 -20l3 -4q8 -8 16 -8q2 0 4 1q11 3 15 15l72 13q16 9 11.5 24.5t-22.5 13.5l-63 -27q-4 14 -5 21
l-6 51q7 0 23 2t24 2q18 5 18 20q0 19 -19 19h-4q-6 -3 -21.5 -8.5t-23.5 -10.5q-4 27 -15 53q12 10 34 10h7q17 4 18 19.5t-17 20.5q-19 -5 -27.5 -7.5t-19.5 -11t-16 -22.5zM411 239q0 -27 5 -58t12.5 -67.5t10.5 -57.5q7 -14 18 -14h1q12 1 18 15q3 12 3 21q-3 10 -11 14
l-12 48q32 -2 46 -2q16 9 11.5 24.5t-22.5 13.5q-2 -1 -17 -3.5t-24 -5.5q-10 45 -16 80q28 7 57 7q9 0 19 -1q18 4 18 21q0 14 -17 19q-65 -14 -75 -19q-14 14 -19.5 -1t-5.5 -34zM376 536l11 -16q14 6 36 8q-9 -40 -9 -62q0 -20 6 -66q6 -42 6 -65q3 -21 20 -21
q18 1 20 22q-3 21 -12 64t-11 64q-1 8 -1 20q0 18 2 44q33 0 45 5q13 7 13 17q0 5 -2 10q-6 12 -17 12q-5 0 -11 -3q-11 -5 -45.5 -10.5t-50.5 -22.5zM350 501l1 5l-10 3q-4 0 -10 -3q-8 -9 -14 -34t-7 -50v-6q0 -22 7 -40q8 -18 23 -18h2q33 2 42 48q4 20 4 35q0 22 -8 37
q-8 21 -30 23zM154 205q14 13 36 13h4q26 -2 34 -21q5 -13 5 -27q0 -22 -12 -44q-20 -37 -56 -42q-1 9 -4 53.5t-7 67.5zM345 460q2 -2 4 -9q4 -17 4 -29q0 -20 -10 -29q-8 29 -8 53q0 9 1 17q4 -3 9 -3zM93 313l-3 -3q-3 -5 -3 -10q0 -8 6 -14q9 -7 17 -7t15 6q6 9 6 17
q0 3 -1 6q-2 5 -11 13q-4 1 -8 1q-11 0 -18 -9z" />
    <glyph glyph-name=".null" horiz-adv-x="0" 
 />
    <glyph glyph-name="nonmarkingreturn" horiz-adv-x="333" 
 />
    <glyph glyph-name="space" unicode=" " horiz-adv-x="190" 
 />
    <glyph glyph-name="exclam" unicode="!" horiz-adv-x="193" 
d="M62 31q0 14 10 24t24 10t24 -10t10 -24t-10 -24t-24 -10t-24 10t-10 24zM118 186q0 -22 -22 -22q-21 0 -21 22q0 50 -0.5 203t-0.5 181q0 27 22 27q23 0 23 -27q0 -28 -0.5 -181t-0.5 -203z" />
    <glyph glyph-name="quotedbl" unicode="&#x22;" horiz-adv-x="292" 
d="M117 424q0 -22 -21 -22q-20 0 -20 22q0 8 -1 69t-1 84q0 27 22 27q23 0 23 -27q0 -23 -1 -84t-1 -69zM216 424q0 -22 -20 -22q-21 0 -21 22q0 8 -1 69t-1 84q0 27 23 27q22 0 22 -27q0 -23 -1 -84t-1 -69z" />
    <glyph glyph-name="numbersign" unicode="#" horiz-adv-x="497" 
d="M241 593l-34 -165h134l36 175q2 8 10 13q7 4 14 4h3q8 -2 12.5 -10t3.5 -17l-34 -165h68q9 0 15.5 -6.5t6.5 -15.5t-6.5 -15t-15.5 -6h-76l-36 -174h78q9 0 15.5 -7t6.5 -15q0 -9 -6.5 -15.5t-15.5 -6.5h-87l-35 -174q-2 -8 -10 -13q-5 -5 -11 -5q-3 0 -5 1q-8 2 -13 9.5
t-3 16.5l33 165h-134l-35 -174q-2 -9 -10 -14q-6 -4 -12 -4q-2 0 -5 1q-8 2 -12.5 9.5t-3.5 16.5l33 165h-67q-9 0 -15.5 6.5t-6.5 15.5t6.5 15.5t15.5 6.5h76l36 174h-78q-9 0 -15.5 6.5t-6.5 15.5t6.5 15t15.5 6h86l36 175q2 8 10 13q7 4 13 4h3q8 -2 13 -10t3 -17z
M199 385l-35 -174h134l35 174h-134z" />
    <glyph glyph-name="dollar" unicode="$" horiz-adv-x="381" 
d="M265 593l-16 -78q33 -10 60 -29q18 -13 18 -26q0 -8 -6 -14.5t-14 -6.5q-12 0 -27 11q-31 18 -40 21l-31 -151q33 -11 52 -19.5t40.5 -23t31.5 -35t10 -48.5q0 -58 -44.5 -91t-113.5 -33q-18 0 -26 1l-16 -78q-2 -8 -10 -13q-6 -5 -12 -5l-4 1q-17 5 -17 19q0 3 1 7
l15 78q-43 12 -69 37q-12 11 -12 24q0 9 6 14.5t15 5.5q12 0 21 -11q26 -21 48 -28l33 167q-55 18 -84 44.5t-29 76.5q0 51 40 82.5t99 31.5q4 0 11 -0.5t11 -0.5l16 79q2 8 10 14q6 4 12 4l4 -1q20 -6 17 -26zM295 194q0 31 -22 48t-73 34l-33 -164h17q54 0 82.5 21.5
t28.5 60.5zM92 410q0 -29 17.5 -45.5t57.5 -30.5l30 146q-4 1 -12 1q-44 0 -68.5 -18.5t-24.5 -52.5z" />
    <glyph glyph-name="percent" unicode="%" horiz-adv-x="691" 
d="M43 468q0 59 39.5 97.5t95.5 38.5t95.5 -38.5t39.5 -97.5q0 -58 -39.5 -96t-95.5 -38t-95.5 38t-39.5 96zM92 468q0 -42 24 -66t62 -24t62 24t24 66q0 44 -24 67.5t-62 23.5t-62 -23.5t-24 -67.5zM648 125q0 -58 -39.5 -96.5t-95.5 -38.5t-95.5 38.5t-39.5 96.5
t39.5 96.5t95.5 38.5t95.5 -38.5t39.5 -96.5zM599 125q0 43 -24 67t-62 24t-62 -24t-24 -67t24 -66.5t62 -23.5t62 23.5t24 66.5zM540 574l-348 -579q-5 -8 -14 -11h-7q-6 0 -11 3q-8 4 -10 14q-1 3 -1 6q0 6 4 12l348 579q5 8 15 10q3 1 6 1q6 0 11 -3q8 -4 10 -14
q1 -3 1 -6q0 -6 -4 -12z" />
    <glyph glyph-name="ampersand" unicode="&#x26;" horiz-adv-x="541" 
d="M524 298q0 -114 -72 -203l66 -70q4 -8 4 -13q0 -9 -6.5 -15.5t-15.5 -6.5q-12 0 -19 10v-1l-60 64q-77 -72 -178 -72q-82 0 -143.5 44t-61.5 122q0 58 28 100.5t96 81.5l-15 17q-59 62 -59 123q0 56 35.5 90.5t98.5 34.5q64 0 100 -35.5t36 -91.5q0 -54 -31.5 -85.5
t-92.5 -62.5l187 -201q56 76 58 170q0 94 -38 149q-14 19 -14 33q0 7 6.5 12.5t15.5 5.5q17 0 31 -21q44 -67 44 -179zM238 33q89 0 153 61l-199 213q-55 -30 -81 -63.5t-26 -82.5q0 -59 49 -93.5t104 -34.5zM136 478q0 -43 44 -91l25 -27q27 12 39 18.5t30.5 20.5t26 33.5
t7.5 45.5q0 36 -23 60t-63 24t-63 -23.5t-23 -60.5z" />
    <glyph glyph-name="quotesingle" unicode="'" horiz-adv-x="193" 
d="M117 424q0 -22 -21 -22q-20 0 -20 22q0 8 -1 69t-1 84q0 27 22 27q23 0 23 -27q0 -23 -1 -84t-1 -69z" />
    <glyph glyph-name="parenleft" unicode="(" horiz-adv-x="257" 
d="M64 252q0 127 32.5 215.5t95.5 166.5q9 11 18 11q8 0 16 -6q8 -8 8 -16.5t-8 -17.5q-58 -70 -88 -152.5t-30 -200.5t30 -200.5t88 -152.5q8 -9 8 -17.5t-8 -16.5q-8 -6 -16 -6q-9 0 -18 11q-63 78 -95.5 166.5t-32.5 215.5z" />
    <glyph glyph-name="parenright" unicode=")" horiz-adv-x="257" 
d="M193 252q0 -127 -32.5 -215.5t-95.5 -166.5q-9 -11 -18 -11q-8 0 -16 6q-8 8 -8 16.5t8 17.5q58 70 88 152.5t30 200.5t-30 200.5t-88 152.5q-8 9 -8 17.5t8 16.5q8 6 16 6q9 0 18 -11q63 -78 95.5 -166.5t32.5 -215.5z" />
    <glyph glyph-name="asterisk" unicode="*" horiz-adv-x="333" 
d="M194 568q0 -13 -5 -42.5t-6 -47.5q18 7 44.5 20.5t36.5 17.5q7 2 13 2q19 0 24 -19q2 -6 2 -11q0 -16 -21 -24q-12 -4 -41.5 -9t-47.5 -9q12 -14 33 -35t28 -30q8 -11 8 -20q0 -12 -12 -20q-7 -5 -16 -5h-4q-12 2 -19 13q-6 9 -20 35t-25 43q-10 -15 -23.5 -41.5
t-20.5 -36.5q-9 -14 -21 -14q-9 0 -18 6q-12 8 -12 20q0 9 8 20q7 9 27.5 30t32.5 35q-18 4 -47 9t-41 9q-21 8 -21 24q0 5 2 11q5 19 24 19q6 0 13 -2q9 -3 35 -16.5t46 -21.5q-1 17 -5.5 47t-4.5 43q0 29 27 29q12 0 19.5 -8t7.5 -21z" />
    <glyph glyph-name="plus" unicode="+" horiz-adv-x="450" 
d="M203 154v121h-121q-25 0 -25 22t25 22h121v121q0 25 22 25t22 -25v-121h121q25 0 25 -22t-25 -22h-121v-121q0 -25 -22 -25t-22 25z" />
    <glyph glyph-name="comma" unicode="," horiz-adv-x="193" 
d="M118 3q-11 -7 -21 -7q-8 0 -17 4q-18 10 -18 31q0 14 9 24t25 10q47 0 47 -58q0 -41 -21 -65.5t-62 -24.5q-12 0 -12 10q0 9 13 9q25 0 41 19t16 48z" />
    <glyph glyph-name="hyphen" unicode="-" horiz-adv-x="312" 
d="M246 253h-180q-24 0 -24 22t24 22h180q25 0 25 -22t-25 -22z" />
    <glyph glyph-name="period" unicode="." horiz-adv-x="193" 
d="M62 31q0 14 10 24t24 10t24 -10t10 -24t-10 -24t-24 -10t-24 10t-10 24z" />
    <glyph glyph-name="slash" unicode="/" horiz-adv-x="347" 
d="M334 613l-283 -737q-6 -16 -17 -16q-4 0 -10 3q-14 5 -14 17q0 5 3 12l283 737q6 15 18 15q4 0 10 -2q13 -5 13 -17q0 -5 -3 -12z" />
    <glyph glyph-name="zero" unicode="0" horiz-adv-x="545" 
d="M52 297q0 148 58.5 227.5t160.5 79.5t160.5 -79.5t58.5 -227.5t-58.5 -227.5t-160.5 -79.5t-160.5 79.5t-58.5 227.5zM441 297q0 133 -45.5 199t-124.5 66t-124 -66t-45 -199t45 -199t124 -66t124.5 66t45.5 199z" />
    <glyph glyph-name="one" unicode="1" horiz-adv-x="291" 
d="M143 20v514q-33 -24 -97 -24q-7 0 -13 6t-6 14t6 15t13 7q67 0 105 42q4 5 16 5q10 0 17 -7t7 -17v-555q0 -10 -7 -17t-17 -7t-17 7t-7 17z" />
    <glyph glyph-name="two" unicode="2" horiz-adv-x="446" 
d="M205 56l75 -20q27 -6 44 -6q32 0 47 19q11 13 21 13q19 0 19 -19q0 -17 -15 -32q-23 -21 -67 -21q-23 0 -68 9l-92 22q-19 3 -37 3q-33 0 -55 -17q-8 -7 -18 -7q-3 0 -8.5 -0.5t-8 -0.5t-5.5 1t-4.5 3.5t-1.5 7.5q0 9 4 16q2 11 10 18q71 59 114.5 99t92 94t72 104
t23.5 99q0 59 -31.5 89t-83.5 30q-72 0 -138 -49q-9 -7 -16 -7q-8 0 -14 6t-6 14t8 16q27 27 69.5 45.5t90.5 18.5q75 0 121 -41.5t46 -125.5q0 -88 -77.5 -187t-191.5 -188q5 1 17 1q29 0 64 -7z" />
    <glyph glyph-name="three" unicode="3" horiz-adv-x="426" 
d="M147 302q0 14 14 17q78 20 115.5 54t37.5 89q0 46 -31 72.5t-78 26.5q-63 0 -125 -52q-7 -7 -16 -7q-19 0 -19 19q0 9 8 17q62 66 148 66q80 0 122 -42t42 -103q0 -56 -41 -102.5t-101 -53.5q66 -6 110.5 -47t44.5 -105q0 -67 -50 -114t-144 -47q-39 0 -80 12t-61 30
q-5 7 -5 15t6 13.5t14 5.5q5 0 17 -7q46 -29 111 -29t104 32.5t39 86.5q0 58 -38 88.5t-130 46.5q-14 3 -14 18z" />
    <glyph glyph-name="four" unicode="4" horiz-adv-x="499" 
d="M450 169h-88v-150q0 -10 -7 -16.5t-17 -6.5q-23 0 -23 23v150h-268q-8 0 -14 6t-6 14q0 5 4 13v1l286 382q5 13 21 13q10 0 17 -7t7 -17v-363h88q9 0 15.5 -6.5t6.5 -15.5q0 -8 -6.5 -14t-15.5 -6zM92 211h223v298z" />
    <glyph glyph-name="five" unicode="5" horiz-adv-x="408" 
d="M76 344l15 231q2 19 22 19h221q9 0 15 -6t6 -15t-6 -15t-15 -6h-201l-13 -189q246 -30 246 -201q0 -71 -52 -121.5t-153 -50.5q-39 0 -76 11.5t-54 28.5q-5 7 -5 14q0 8 6 14t15 6q5 0 15 -6q41 -28 99 -28q75 0 115 36.5t40 95.5q0 76 -57 112.5t-164 49.5q-8 2 -14 7.5
t-5 12.5z" />
    <glyph glyph-name="six" unicode="6" horiz-adv-x="479" 
d="M45 181q0 93 70 199l136 206q6 12 18 12q9 0 15 -6.5t6 -14.5t-6 -16l-113 -171l-56 -78q52 62 137 62q78 0 133 -51.5t55 -141.5q0 -80 -54 -135.5t-146 -55.5q-91 0 -143 55.5t-52 135.5zM95 181q0 -68 41.5 -110t104.5 -42q66 0 108 41.5t42 110.5q0 67 -42 108.5
t-107 41.5q-64 0 -105.5 -41.5t-41.5 -108.5z" />
    <glyph glyph-name="seven" unicode="7" horiz-adv-x="396" 
d="M131 29q0 177 160 455l27 49q-18 -3 -35 -3q-29 0 -66 7l-74 21q-29 6 -44 6q-33 0 -46 -19q-12 -13 -21 -13q-20 0 -20 19q0 17 15 32q23 21 68 21q22 0 67 -9l92 -22q21 -3 38 -3q31 0 55 17q8 7 18 7q3 0 12.5 1.5t12.5 -0.5t3 -9q0 -17 -18 -32l-52 -98l-33 -61
l-32 -61l-26 -54q-17 -37 -24 -60l-16 -58q-9 -34 -12 -68t-3 -72q0 -26 -23 -26t-23 33z" />
    <glyph glyph-name="eight" unicode="8" horiz-adv-x="478" 
d="M239 343q47 0 79.5 30.5t32.5 80.5q0 51 -32.5 82t-79.5 31t-79.5 -31t-32.5 -82q0 -50 32.5 -80.5t79.5 -30.5zM239 30q63 0 104 33.5t41 97.5q0 63 -42 100t-103 37t-103 -37t-42 -100q0 -64 41 -97.5t104 -33.5zM239 -10q-85 0 -140.5 46t-55.5 126q0 62 41.5 104.5
t93.5 52.5q-42 10 -70.5 45.5t-28.5 86.5q0 72 46 112.5t114 40.5t114 -40.5t46 -112.5q0 -51 -28.5 -86.5t-70.5 -45.5q52 -10 93.5 -52.5t41.5 -104.5q0 -80 -55.5 -126t-140.5 -46z" />
    <glyph glyph-name="nine" unicode="9" horiz-adv-x="479" 
d="M434 413q0 -93 -70 -199l-136 -206q-6 -12 -18 -12q-9 0 -15 6.5t-6 14.5q0 10 6 16l113 171l56 78q-52 -62 -137 -62q-78 0 -133 51.5t-55 141.5q0 80 54 135.5t146 55.5q91 0 143 -55.5t52 -135.5zM384 413q0 68 -41.5 110t-104.5 42q-66 0 -108 -41.5t-42 -110.5
q0 -67 41.5 -108.5t107.5 -41.5q64 0 105.5 41.5t41.5 108.5z" />
    <glyph glyph-name="colon" unicode=":" horiz-adv-x="193" 
d="M62 31q0 14 10 24t24 10t24 -10t10 -24t-10 -24t-24 -10t-24 10t-10 24zM62 323q0 14 10 24t24 10t24 -10t10 -24t-10 -24t-24 -10t-24 10t-10 24z" />
    <glyph glyph-name="semicolon" unicode=";" horiz-adv-x="193" 
d="M62 323q0 14 10 24t24 10t24 -10t10 -24t-10 -24t-24 -10t-24 10t-10 24zM118 3q-11 -7 -21 -7q-8 0 -17 4q-18 10 -18 31q0 14 9 24t25 10q47 0 47 -58q0 -41 -21 -65.5t-62 -24.5q-12 0 -12 10q0 9 13 9q25 0 41 19t16 48z" />
    <glyph glyph-name="less" unicode="&#x3c;" horiz-adv-x="450" 
d="M57 297q0 15 9 19l292 145q8 4 14 4q12 0 18 -13q4 -6 4 -12q0 -12 -16 -19l-209 -103l-47 -21l47 -21l209 -103q16 -7 16 -19q0 -6 -4 -12q-6 -13 -18 -13q-6 0 -14 4l-292 145q-9 4 -9 19z" />
    <glyph glyph-name="equal" unicode="=" horiz-adv-x="450" 
d="M368 342h-286q-25 0 -25 22q0 23 25 23h286q25 0 25 -23q0 -22 -25 -22zM368 208h-286q-25 0 -25 22t25 22h286q25 0 25 -22t-25 -22z" />
    <glyph glyph-name="greater" unicode="&#x3e;" horiz-adv-x="450" 
d="M281 276l47 21l-47 21l-209 103q-16 7 -16 19q0 6 4 12q6 13 18 13q6 0 14 -4l292 -145q9 -4 9 -19t-9 -19l-292 -145q-8 -4 -14 -4q-12 0 -18 13q-4 6 -4 12q0 12 16 19z" />
    <glyph glyph-name="question" unicode="?" horiz-adv-x="375" 
d="M172 268l7 -77q1 -11 -7 -19t-20 -8q-25 0 -27 27l-4 81q0 22 21 25q79 16 119 47.5t40 96.5q0 54 -36 88.5t-110 34.5q-57 0 -98 -28q-8 -6 -15 -6q-9 0 -15 6t-6 14q0 7 5 14q17 17 53.5 28.5t74.5 11.5q101 0 149 -48t48 -115q0 -128 -179 -173zM118 31q0 14 10 24
t24 10t24 -10t10 -24t-10 -24t-24 -10t-24 10t-10 24z" />
    <glyph glyph-name="at" unicode="@" horiz-adv-x="741" 
d="M392 -71q100 0 152 35q17 10 26 10t15 -6.5t6 -15.5q0 -18 -17 -28q-69 -40 -182 -40q-163 0 -254.5 90t-91.5 244t91.5 244t254.5 90q146 0 226.5 -72t80.5 -208q0 -112 -56.5 -167.5t-139.5 -56.5h-3q-24 0 -24 27v43q-11 -32 -47 -53t-76 -21q-70 0 -117 46.5
t-47 127.5q0 80 47 127t117 47q40 0 76 -21t47 -53v43q0 27 24 27q25 0 25 -27v-267q123 15 123 178q0 117 -67.5 176t-188.5 59q-140 0 -217.5 -76.5t-77.5 -212.5t77.5 -212.5t217.5 -76.5zM480 218q0 58 -34.5 95.5t-87.5 37.5q-54 0 -87 -37.5t-33 -95.5t33 -95.5
t87 -37.5q53 0 87.5 37.5t34.5 95.5z" />
    <glyph glyph-name="A" unicode="A" horiz-adv-x="504" 
d="M25 32l184 530q12 36 43 36t43 -36l184 -530q3 -7 3 -13q0 -8 -4 -13q-7 -10 -21 -10q-17 0 -26 24l-53 155h-252l-53 -155q-9 -24 -26 -24q-14 0 -21 10q-4 5 -4 13q0 6 3 13zM252 545l-112 -327h223z" />
    <glyph glyph-name="B" unicode="B" horiz-adv-x="517" 
d="M276 0h-163q-24 0 -24 27v540q0 27 24 27h118q101 0 146.5 -37.5t45.5 -118.5q0 -96 -74 -128q57 -12 89 -52t32 -93q0 -80 -43.5 -122.5t-150.5 -42.5zM137 322h117q59 0 90 27t31 89q0 61 -37.5 86t-106.5 25h-94v-227zM137 279v-236h132q83 0 118 28t35 92
q0 116 -155 116h-130z" />
    <glyph glyph-name="C" unicode="C" horiz-adv-x="575" 
d="M45 297q0 135 86 221t211 86q101 0 168 -54q17 -14 17 -27q0 -9 -6 -14.5t-15 -5.5q-15 0 -29 12q-35 25 -62.5 34.5t-73.5 9.5q-104 0 -175.5 -72.5t-71.5 -189.5t71.5 -189.5t175.5 -72.5q46 0 76 10t64 34q15 13 29 13q8 0 14.5 -6t6.5 -15q0 -13 -17 -27
q-69 -54 -172 -54q-125 0 -211 86t-86 221z" />
    <glyph glyph-name="D" unicode="D" horiz-adv-x="619" 
d="M206 0h-93q-24 0 -24 27v540q0 27 24 27h93q177 0 272.5 -72t95.5 -217q0 -155 -95.5 -230t-272.5 -75zM138 42h61q326 0 326 264q0 128 -86.5 187t-239.5 59h-61v-510z" />
    <glyph glyph-name="E" unicode="E" horiz-adv-x="480" 
d="M89 27v540q0 27 24 27h302q24 0 24 -21t-24 -21h-277v-226h245q24 0 24 -22q0 -21 -24 -21h-245v-241h276q24 0 24 -21t-24 -21h-301q-24 0 -24 27z" />
    <glyph glyph-name="F" unicode="F" horiz-adv-x="437" 
d="M138 273v-249q0 -28 -25 -28q-24 0 -24 28v543q0 27 24 27h278q24 0 24 -21t-24 -21h-253v-236h230q24 0 24 -21q0 -22 -24 -22h-230z" />
    <glyph glyph-name="G" unicode="G" horiz-adv-x="616" 
d="M380 293h152q25 0 25 -28v-195q0 -20 -13 -28q-86 -52 -193 -52q-133 0 -219.5 86t-86.5 221q0 134 88 220.5t214 86.5q105 0 171 -53q18 -17 18 -28q0 -9 -6.5 -15t-14.5 -6q-14 0 -29 13q-34 24 -64 34t-76 10q-104 0 -178 -73t-74 -189t74 -189.5t181 -73.5
q94 0 158 40v176h-127q-24 0 -24 21q0 22 24 22z" />
    <glyph glyph-name="H" unicode="H" horiz-adv-x="620" 
d="M482 325v245q0 28 25 28q24 0 24 -28v-546q0 -28 -24 -28q-25 0 -25 28v259h-345v-259q0 -28 -24 -28t-24 28v546q0 28 24 28t24 -28v-245h345z" />
    <glyph glyph-name="I" unicode="I" horiz-adv-x="226" 
d="M137 570v-546q0 -28 -24 -28t-24 28v546q0 28 24 28t24 -28z" />
    <glyph glyph-name="J" unicode="J" horiz-adv-x="396" 
d="M275 150v420q0 28 24 28q25 0 25 -28v-428q0 -77 -48 -114.5t-115 -37.5q-92 0 -134 57q-11 15 -11 26q0 8 5.5 14t13.5 6q3 0 6 -0.5t5.5 -2t4 -2t4.5 -3.5t4 -4.5t4.5 -6t4.5 -5.5q30 -36 95 -36q112 0 112 117z" />
    <glyph glyph-name="K" unicode="K" horiz-adv-x="532" 
d="M137 570v-305l62 63l5 12h6l238 242q15 16 27 16q21 0 21 -21q0 -14 -11 -23l-215 -220q39 -15 69 -77q1 -3 2 -5l77 -153q16 -32 32 -44.5t44 -12.5q10 0 16.5 -6.5t6.5 -16.5q0 -9 -6.5 -15.5t-14.5 -6.5q-47 0 -75 21.5t-50 64.5l-82 161q-17 33 -27 43.5t-27 11.5
l-98 -101v-174q0 -28 -24 -28t-24 28v546q0 28 24 28t24 -28z" />
    <glyph glyph-name="L" unicode="L" horiz-adv-x="453" 
d="M89 27v543q0 28 24 28t24 -28v-528h271q24 0 24 -21t-24 -21h-295q-24 0 -24 27z" />
    <glyph glyph-name="M" unicode="M" horiz-adv-x="750" 
d="M613 517l-199 -355q-18 -31 -39 -31t-39 31l-199 355v-493q0 -28 -25 -28t-25 28v539q0 35 33 35q26 0 40 -28l216 -388l216 388q15 28 38 28q33 0 33 -35v-539q0 -28 -25 -28t-25 28v493z" />
    <glyph glyph-name="N" unicode="N" horiz-adv-x="656" 
d="M504 18l-366 497v-491q0 -28 -25 -28q-24 0 -24 28v545q0 29 26 29q19 0 37 -22l366 -501v495q0 28 25 28t25 -28v-545q0 -29 -27 -29q-21 0 -37 22z" />
    <glyph glyph-name="O" unicode="O" horiz-adv-x="685" 
d="M45 297q0 135 86 221t212 86t212 -86t86 -221t-86 -221t-212 -86t-212 86t-86 221zM94 297q0 -117 72 -190t177 -73t176.5 73t71.5 190t-71.5 190t-176.5 73t-177 -73t-72 -190z" />
    <glyph glyph-name="P" unicode="P" horiz-adv-x="467" 
d="M202 231h-64v-207q0 -28 -25 -28q-24 0 -24 28v543q0 27 24 27h89q237 0 237 -181q0 -182 -237 -182zM138 274h60q97 0 143.5 32.5t46.5 106.5q0 73 -46.5 105.5t-143.5 32.5h-60v-277z" />
    <glyph glyph-name="Q" unicode="Q" horiz-adv-x="685" 
d="M532 -8l-37 38q-68 -40 -152 -40q-126 0 -212 86t-86 221t86 221t212 86t212 -86t86 -221q0 -150 -106 -240l23 -24q18 -20 34.5 -27t46.5 -7q27 0 27 -24t-33 -24q-60 0 -101 41zM448 152l57 -62q86 73 86 207q0 117 -71.5 190t-176.5 73t-177 -73t-72 -190t72 -190
t177 -73q68 0 122 28l-43 46q-18 19 -34 25.5t-45 6.5t-29 26t36 26q59 0 98 -40z" />
    <glyph glyph-name="R" unicode="R" horiz-adv-x="543" 
d="M113 594h111q218 0 218 -174q0 -135 -152 -158q36 -16 65 -78l15 -34l15 -35q5 -11 15 -28t19.5 -24.5t24.5 -14t33 -6.5q10 0 16.5 -6.5t6.5 -16.5q0 -9 -6.5 -15.5t-15.5 -6.5q-93 0 -149 122q-2 5 -11.5 26t-11.5 26l-12 21q-8 16 -12.5 20.5t-14 15t-17.5 13.5
t-19.5 6t-24.5 3h-68v-226q0 -28 -25 -28q-24 0 -24 28v543q0 27 24 27zM138 552v-259h89q164 0 164 127q0 64 -41.5 98t-122.5 34h-89z" />
    <glyph glyph-name="S" unicode="S" horiz-adv-x="529" 
d="M55 46q-18 14 -18 29q0 9 6.5 16t15.5 7q14 0 27 -14q58 -50 166 -50q84 0 133.5 32.5t49.5 91.5q0 32 -16 55.5t-46.5 37.5t-54 20.5t-59.5 13.5q-111 21 -159.5 56t-48.5 109q0 71 57 112.5t146 41.5q120 0 184 -46q18 -13 18 -28q0 -9 -5.5 -15t-12.5 -6q-13 0 -32 14
q-56 37 -151 37q-74 0 -115 -30.5t-41 -80.5q0 -53 40 -77t120 -40q111 -22 167.5 -60.5t56.5 -112.5q0 -77 -63.5 -123t-167.5 -46q-129 0 -197 56z" />
    <glyph glyph-name="T" unicode="T" horiz-adv-x="531" 
d="M290 552v-528q0 -28 -24 -28q-25 0 -25 28v528h-196q-23 0 -23 21t23 21h441q24 0 24 -21t-24 -21h-196z" />
    <glyph glyph-name="U" unicode="U" horiz-adv-x="627" 
d="M557 570v-331q0 -116 -70 -182.5t-174 -66.5q-103 0 -173 66.5t-70 182.5v331q0 28 24 28t24 -28v-329q0 -96 55 -152t140 -56q86 0 140.5 55.5t54.5 152.5v329q0 28 25 28q24 0 24 -28z" />
    <glyph glyph-name="V" unicode="V" horiz-adv-x="567" 
d="M542 561l-217 -530q-15 -35 -40 -35q-28 0 -43 35l-216 530q-3 7 -3 13t2 12q5 12 20 12q19 0 29 -26l211 -523l210 523q10 26 29 26q15 0 20 -13q1 -6 1 -11q0 -7 -3 -13z" />
    <glyph glyph-name="W" unicode="W" horiz-adv-x="781" 
d="M391 443l-129 -406q-12 -41 -48 -41q-35 0 -46 44l-144 521q-2 7 -2 13q0 7 2 13q5 11 20 11q19 0 27 -24l144 -532l137 414q8 22 16 30.5t23 8.5q14 0 22 -8.5t16 -30.5l137 -414l144 532q8 24 27 24q15 0 19 -11q3 -6 3 -13q0 -6 -2 -13l-144 -521q-11 -44 -46 -44
q-36 0 -47 41z" />
    <glyph glyph-name="X" unicode="X" horiz-adv-x="551" 
d="M509 559l-202 -256l209 -268q5 -7 5 -14q0 -5 -2 -11q-6 -14 -21 -14q-13 0 -30 21l-193 246l-190 -246q-17 -21 -30 -21q-15 0 -21 14q-2 6 -2 11q0 7 5 14l209 265l-202 259q-9 11 -3 25t21 14q14 0 29 -21l187 -238l183 238q17 21 30 21q15 0 21 -14t-3 -25z" />
    <glyph glyph-name="Y" unicode="Y" horiz-adv-x="517" 
d="M283 234v-210q0 -28 -25 -28q-24 0 -24 28v210l-215 328q-4 6 -4 12t3 12q6 12 19 12q15 0 29 -23l193 -293l193 293q14 23 29 23q13 0 19 -12q2 -6 2 -11q0 -7 -4 -13z" />
    <glyph glyph-name="Z" unicode="Z" horiz-adv-x="478" 
d="M30 58l353 494h-340q-24 0 -24 21t24 21h375q24 0 24 -20q0 -12 -17 -38l-352 -494h356q24 0 24 -21t-24 -21h-392q-23 0 -23 20q0 14 16 38z" />
    <glyph glyph-name="bracketleft" unicode="[" horiz-adv-x="257" 
d="M74 -111v726q0 29 25 29h112q23 0 23 -21q0 -20 -23 -20h-89v-702h89q23 0 23 -20q0 -21 -23 -21h-112q-25 0 -25 29z" />
    <glyph glyph-name="backslash" unicode="\" horiz-adv-x="347" 
d="M296 -124l-283 737q-3 7 -3 12q0 12 14 17q6 3 10 3q12 0 18 -16l283 -737q2 -7 2 -12q0 -12 -13 -17q-6 -2 -10 -2q-12 0 -18 15z" />
    <glyph glyph-name="bracketright" unicode="]" horiz-adv-x="257" 
d="M183 615v-726q0 -29 -25 -29h-112q-23 0 -23 21q0 20 23 20h89v702h-89q-23 0 -23 20q0 21 23 21h112q25 0 25 -29z" />
    <glyph glyph-name="asciicircum" unicode="^" horiz-adv-x="450" 
d="M225 598q15 0 19 -9l145 -292q4 -8 4 -14q0 -12 -13 -18q-6 -4 -12 -4q-12 0 -19 16l-103 210l-21 46l-21 -46l-103 -210q-7 -16 -19 -16q-6 0 -12 4q-13 6 -13 18q0 6 4 14l145 292q4 9 19 9z" />
    <glyph glyph-name="underscore" unicode="_" horiz-adv-x="312" 
d="M244 -181h-176q-25 0 -25 23q0 22 25 22h176q25 0 25 -22q0 -23 -25 -23z" />
    <glyph glyph-name="grave" unicode="`" 
d="M245 594l32 -73q3 -8 3 -14q0 -11 -10 -17q-6 -3 -11 -3q-10 0 -19 12l-48 65q-11 15 -11 26q0 15 17 25q9 6 17 6q18 0 30 -27z" />
    <glyph glyph-name="a" unicode="a" horiz-adv-x="550" 
d="M424 341v68q0 28 24 28t24 -28v-384q0 -28 -24 -28t-24 28v68q-16 -44 -64.5 -73.5t-102.5 -29.5q-92 0 -154 60.5t-62 166.5t62 166.5t154 60.5q54 0 102.5 -29.5t64.5 -73.5zM428 217q0 80 -48 132.5t-121 52.5q-75 0 -122.5 -52t-47.5 -133t47.5 -133t122.5 -52
q73 0 121 52.5t48 132.5z" />
    <glyph glyph-name="b" unicode="b" horiz-adv-x="550" 
d="M126 93v-68q0 -28 -24 -28q-23 0 -23 28v565q0 28 23 28q24 0 24 -28v-249q17 45 65 74t103 29q91 0 153.5 -61t62.5 -166t-62.5 -166t-153.5 -61q-55 0 -103 29t-65 74zM123 217q0 -80 48 -132.5t121 -52.5q75 0 122 52t47 133t-47 133t-122 52q-73 0 -121 -52.5
t-48 -132.5z" />
    <glyph glyph-name="c" unicode="c" horiz-adv-x="450" 
d="M41 217q0 105 62 166t155 61q91 0 141 -52q11 -11 11 -23q0 -20 -18 -20q-9 0 -20 11q-50 41 -114 41q-72 0 -120.5 -50t-48.5 -134q0 -85 48 -134.5t121 -49.5q67 0 116 41q10 10 20 10q18 0 18 -19q0 -12 -11 -23q-50 -52 -143 -52t-155 61t-62 166z" />
    <glyph glyph-name="d" unicode="d" horiz-adv-x="550" 
d="M424 25v68q-16 -44 -64.5 -73.5t-102.5 -29.5q-92 0 -154 60.5t-62 166.5t62 166.5t154 60.5q54 0 102.5 -29.5t64.5 -73.5v249q0 28 24 28t24 -28v-565q0 -28 -24 -28t-24 28zM428 217q0 80 -48 132.5t-121 52.5q-75 0 -122.5 -52t-47.5 -133t47.5 -133t122.5 -52
q73 0 121 52.5t48 132.5z" />
    <glyph glyph-name="e" unicode="e" horiz-adv-x="473" 
d="M89 220v-2q-1 -84 48 -134.5t120 -50.5q72 0 121 42q11 11 20 11q18 0 18 -19q0 -14 -11 -25q-51 -52 -148 -52q-94 0 -155 61.5t-61 166.5q0 96 59 161t145 65q82 0 131.5 -48t49.5 -141q0 -35 -29 -35h-308zM93 265h284q-7 135 -135 135q-54 0 -94.5 -35.5t-54.5 -99.5
z" />
    <glyph glyph-name="f" unicode="f" horiz-adv-x="303" 
d="M93 434v40q0 69 34 109.5t99 40.5q29 0 51 -11q18 -10 18 -24q0 -8 -6 -14t-14 -6q-6 0 -20 6t-31 6q-40 0 -61.5 -24t-21.5 -83v-40h100q23 0 23 -21q0 -20 -23 -20h-100v-369q0 -28 -24 -28t-24 28v369h-55q-23 0 -23 20q0 21 23 21h55z" />
    <glyph glyph-name="g" unicode="g" horiz-adv-x="550" 
d="M472 410v-378q0 -109 -63.5 -160.5t-154.5 -51.5q-61 0 -85 11q-23 8 -23 25q0 20 24 20q9 0 36.5 -7t47.5 -7q170 0 170 173v63q-16 -44 -64.5 -72.5t-103.5 -28.5q-91 0 -153 60t-62 163q0 104 62 164t153 60q55 0 103.5 -28.5t64.5 -72.5v66q-1 29 24 29q24 0 24 -28z
M428 220q0 79 -48 130t-121 51q-75 0 -122.5 -50.5t-47.5 -130.5q0 -79 47.5 -129.5t122.5 -50.5q73 0 121 51t48 129z" />
    <glyph glyph-name="h" unicode="h" horiz-adv-x="509" 
d="M126 590v-239q20 42 60 67.5t93 25.5q72 0 114 -39t42 -117v-264q0 -28 -24 -28t-24 28v252q0 122 -120 122q-62 0 -101.5 -39.5t-39.5 -114.5v-220q0 -28 -24 -28q-23 0 -23 28v566q0 28 23 28q24 0 24 -28z" />
    <glyph glyph-name="i" unicode="i" horiz-adv-x="205" 
d="M73 525v28q0 12 9 21t20 9t20 -9t9 -21v-28q0 -12 -9 -21t-20 -9t-20 9t-9 21zM126 410v-386q0 -28 -24 -28q-23 0 -23 28v386q0 28 23 28q24 0 24 -28z" />
    <glyph glyph-name="j" unicode="j" horiz-adv-x="205" 
d="M73 525v28q0 12 9 21t20 9t20 -9t9 -21v-28q0 -12 -9 -21t-20 -9t-20 9t-9 21zM126 410v-433q0 -59 -16 -95.5t-62 -58.5q-6 -3 -11 -3q-11 0 -17 7t-6 16q0 13 16 21q18 9 28.5 20t15 29.5t5 31t0.5 40.5v425q0 28 23 28q24 0 24 -28z" />
    <glyph glyph-name="k" unicode="k" horiz-adv-x="459" 
d="M79 24v566q0 28 23 28q24 0 24 -28v-384l219 214q17 18 29 18q21 0 21 -20q0 -9 -12 -21l-156 -148l137 -170q23 -29 33.5 -36t32.5 -7q10 0 16 -7t6 -15q0 -24 -42 -24q-25 0 -46 16.5t-51 55.5l-120 154l-67 -64v-128q0 -28 -24 -28q-23 0 -23 28z" />
    <glyph glyph-name="l" unicode="l" horiz-adv-x="210" 
d="M166 -4h-3q-84 0 -84 86v508q0 28 23 28q24 0 24 -28v-506q0 -24 7.5 -35t27.5 -11h4q9 0 15.5 -6.5t6.5 -14.5t-6.5 -14.5t-14.5 -6.5z" />
    <glyph glyph-name="m" unicode="m" horiz-adv-x="779" 
d="M126 410v-59q45 93 144 93q113 0 139 -97q20 42 60 69.5t92 27.5q70 0 107 -39.5t37 -116.5v-264q0 -28 -24 -28q-23 0 -23 28v252q0 122 -110 122q-56 0 -94 -40.5t-38 -113.5v-220q0 -28 -24 -28t-24 28v252q0 122 -110 122q-56 0 -94 -40.5t-38 -113.5v-220
q0 -28 -24 -28q-23 0 -23 28v386q0 28 23 28q24 0 24 -28z" />
    <glyph glyph-name="n" unicode="n" horiz-adv-x="509" 
d="M126 410v-59q20 42 60 67.5t93 25.5q72 0 114 -39t42 -117v-264q0 -28 -24 -28t-24 28v252q0 122 -120 122q-62 0 -101.5 -39.5t-39.5 -114.5v-220q0 -28 -24 -28q-23 0 -23 28v386q0 28 23 28q24 0 24 -28z" />
    <glyph glyph-name="o" unicode="o" 
d="M41 217q0 98 62 162.5t157 64.5q94 0 156 -64.5t62 -162.5t-62 -162.5t-156 -64.5q-95 0 -157 64.5t-62 162.5zM90 217q0 -80 48 -132.5t122 -52.5q73 0 121 52.5t48 132.5t-48 132.5t-121 52.5q-74 0 -122 -52.5t-48 -132.5z" />
    <glyph glyph-name="p" unicode="p" horiz-adv-x="550" 
d="M126 410v-68q17 45 65 74t103 29q91 0 153.5 -61t62.5 -166t-62.5 -166t-153.5 -61q-55 0 -103 29t-65 74v-242q0 -28 -24 -28q-23 0 -23 28v558q0 28 23 28q24 0 24 -28zM123 218q0 -80 48 -132.5t121 -52.5q75 0 122 52t47 133t-47 133t-122 52q-73 0 -121 -52.5
t-48 -132.5z" />
    <glyph glyph-name="q" unicode="q" horiz-adv-x="550" 
d="M424 342v68q0 28 24 28t24 -28v-558q0 -28 -24 -28t-24 28v242q-16 -44 -64.5 -73.5t-102.5 -29.5q-92 0 -154 60.5t-62 166.5t62 166.5t154 60.5q54 0 102.5 -29.5t64.5 -73.5zM428 218q0 80 -48 132.5t-121 52.5q-75 0 -122.5 -52t-47.5 -133t47.5 -133t122.5 -52
q73 0 121 52.5t48 132.5z" />
    <glyph glyph-name="r" unicode="r" horiz-adv-x="317" 
d="M126 410v-65q15 36 54.5 64.5t82.5 28.5q35 0 35 -24t-24 -24h-4q-62 0 -103 -37t-41 -105v-224q0 -28 -24 -28q-23 0 -23 28v386q0 28 23 28q24 0 24 -28z" />
    <glyph glyph-name="s" unicode="s" horiz-adv-x="435" 
d="M315 360q-56 42 -119 42q-49 0 -76.5 -19t-27.5 -53q0 -16 6.5 -28t14 -19.5t28.5 -15t33 -11.5l46 -12q40 -11 60 -18t45.5 -21t36.5 -36t11 -53q0 -55 -47.5 -90.5t-124.5 -35.5q-102 0 -155 55q-10 11 -10 24q0 9 5.5 14.5t13.5 5.5q9 0 20 -11q54 -46 125 -46
q62 0 94.5 24t32.5 61q0 14 -3.5 25t-14.5 20t-19 14.5t-30 12t-34 9.5l-42 11q-32 9 -51 16t-42.5 20.5t-34.5 34.5t-11 49q0 52 43.5 83.5t106.5 31.5q95 0 147 -48q17 -15 17 -27q0 -20 -20 -20q-13 0 -24 11z" />
    <glyph glyph-name="t" unicode="t" horiz-adv-x="269" 
d="M82 394h-44q-23 0 -23 20q0 21 23 21h44v123q0 28 24 28t24 -28v-123h79q23 0 23 -21q0 -20 -23 -20h-79v-287q0 -36 11.5 -52.5t41.5 -16.5h28q8 0 14.5 -6.5t6.5 -14.5t-6.5 -14.5t-14.5 -6.5h-25q-104 0 -104 108v290z" />
    <glyph glyph-name="u" unicode="u" horiz-adv-x="487" 
d="M417 410v-254q0 -73 -45 -119.5t-128 -46.5t-128.5 46.5t-45.5 119.5v254q0 28 24 28t24 -28v-235q0 -72 31 -106t95 -34q63 0 94 34t31 106v235q0 28 24 28t24 -28z" />
    <glyph glyph-name="v" unicode="v" horiz-adv-x="438" 
d="M412 400l-154 -369q-8 -20 -16 -27.5t-23 -7.5q-26 0 -40 35l-153 369q-4 9 -4 16q0 5 2 10q4 12 19 12q18 0 30 -29l147 -369l146 369q11 29 30 29q15 0 19 -12q1 -4 1 -9q0 -8 -4 -17z" />
    <glyph glyph-name="w" unicode="w" horiz-adv-x="633" 
d="M181 41l96 283q13 35 40 35t40 -35l96 -283l110 368q9 29 25 29q24 0 24 -21q0 -7 -2 -16l-113 -370q-12 -35 -43 -35q-32 0 -44 35l-93 278l-93 -278q-11 -35 -44 -35q-32 0 -42 35l-114 370q-2 7 -2 13q0 8 3 14q5 10 21 10q18 0 25 -29z" />
    <glyph glyph-name="x" unicode="x" horiz-adv-x="426" 
d="M90 417l124 -158l121 158q16 21 27 21q14 0 19.5 -12t-3.5 -23l-139 -176l154 -196q6 -7 6 -14q0 -4 -3 -9q-5 -12 -20 -12q-14 0 -27 21l-139 176l-134 -176q-16 -21 -28 -21q-14 0 -19 12q-2 4 -2 8q0 8 6 15l153 193l-140 179q-9 11 -3.5 23t20.5 12q14 0 27 -21z" />
    <glyph glyph-name="y" unicode="y" horiz-adv-x="532" 
d="M402 18v60q-44 -93 -148 -93q-71 0 -116.5 40t-45.5 117v268q0 28 24 28t24 -28v-257q0 -61 33.5 -92t85.5 -31q66 0 104.5 39.5t38.5 115.5v225q0 28 24 28t24 -28v-399q0 -100 -59 -145.5t-151 -45.5q-38 0 -62 8q-24 7 -24 23q0 9 6 15t15 6q6 0 27.5 -4.5t37.5 -4.5
q162 0 162 155z" />
    <glyph glyph-name="z" unicode="z" horiz-adv-x="405" 
d="M49 53l251 340h-231q-23 0 -23 20q0 21 23 21h263q27 0 27 -25q0 -12 -12 -28l-254 -340h259q23 0 23 -20q0 -21 -23 -21h-287q-27 0 -27 25q0 13 11 28z" />
    <glyph glyph-name="braceleft" unicode="{" horiz-adv-x="257" 
d="M107 252q54 -8 54 -71v-231q0 -29 9 -40q7 -9 26 -9h4h6h2q26 0 26 -20q0 -21 -23 -21h-10q-88 0 -88 76v250q0 28 -8 37q-7 7 -22 7h-8h-7h-2q-26 0 -26 22q0 21 26 21h2h7h7q15 0 22 7q9 10 9 37v251q0 76 88 76h10q23 0 23 -21t-28 -21h-6h-4q-19 0 -26 -9
q-9 -10 -9 -39v-231q0 -64 -54 -71z" />
    <glyph glyph-name="bar" unicode="|" horiz-adv-x="196" 
d="M74 -113v730q0 27 24 27t24 -27v-730q0 -27 -24 -27t-24 27z" />
    <glyph glyph-name="braceright" unicode="}" horiz-adv-x="257" 
d="M150 252q-54 7 -54 71v231q0 29 -8 39q-8 9 -27 9h-4h-6q-28 0 -28 21t23 21h10q88 0 88 -76v-251q0 -27 8 -37q8 -7 23 -7h7h7h2q26 0 26 -21q0 -22 -26 -22h-2h-7h-8q-15 0 -22 -7q-8 -9 -8 -37v-250q0 -76 -88 -76h-10q-23 0 -23 21q0 20 26 20h2h6h4q19 0 27 9
q8 11 8 40v231q0 63 54 71z" />
    <glyph glyph-name="asciitilde" unicode="~" horiz-adv-x="344" 
d="M172 252l-24 11q-9 5 -17.5 6.5t-13.5 2t-12.5 -3.5t-9 -5t-10 -8.5t-9.5 -8.5q-8 -7 -15 -7q-8 0 -14 9q-6 7 -6 15q0 13 20 28q26 21 58 21q25 0 53 -13l24 -11q8 -4 14.5 -6t13 -1.5t10 0.5t9.5 4t8 5.5t8.5 7.5t8.5 7q7 7 14 7q8 0 14 -9q7 -7 7 -15q0 -13 -20 -28
q-26 -20 -58 -20q-25 0 -53 12z" />
    <glyph glyph-name="uni00A0" unicode="&#xa0;" horiz-adv-x="190" 
 />
    <glyph glyph-name="exclamdown" unicode="&#xa1;" horiz-adv-x="193" 
d="M130 403q0 -14 -10 -24t-24 -10t-24 10t-10 24t10 24t24 10t24 -10t10 -24zM75 247q0 23 21 23q22 0 22 -23q0 -49 0.5 -202t0.5 -182q0 -26 -23 -26q-22 0 -22 26q0 29 0.5 182t0.5 202z" />
    <glyph glyph-name="cent" unicode="&#xa2;" horiz-adv-x="450" 
d="M41 297q0 105 62 166t155 61h3l16 78q2 8 9 14q6 4 12 4q3 0 5 -1q17 -5 17 -19q0 -3 -1 -7l-15 -73q59 -12 95 -48q11 -11 11 -23q0 -19 -18 -19q-10 0 -20 10q-38 30 -76 38l-73 -362q17 -3 35 -3q67 0 116 41q11 11 20 11q18 0 18 -20q0 -12 -11 -23q-50 -52 -143 -52
q-25 0 -44 4l-16 -81q-2 -8 -10 -13q-6 -5 -12 -5l-4 1q-20 6 -17 26l17 84q-60 23 -95.5 78t-35.5 133zM89 297q0 -60 24.5 -103t67.5 -64l71 351q-70 -2 -116.5 -52t-46.5 -132z" />
    <glyph glyph-name="sterling" unicode="&#xa3;" horiz-adv-x="481" 
d="M313 270h-145q11 -45 14 -76v-12q0 -26 -9 -56q-11 -36 -40 -64q5 1 16 1q30 0 65 -7l75 -20q27 -6 44 -6q33 0 46 19q12 13 21 13q20 0 20 -19q0 -17 -15 -32q-23 -21 -68 -21q-22 0 -67 9l-92 22q-21 3 -38 3q-31 0 -55 -17q-8 -7 -18 -7q-3 0 -12.5 -1.5t-12.5 0.5
t-3 10q-1 9 5 17q0 13 9 19q43 35 63 75q19 36 19 70q0 32 -10 80h-67q-25 0 -25 22t25 22h56q-22 80 -22 122q0 84 47 126t127 42t133 -46q8 -5 8 -16q0 -8 -6 -13.5t-14 -5.5q-9 0 -15 7q-44 30 -110 30q-59 0 -92.5 -31t-33.5 -92q0 -45 21 -123h156q25 0 25 -22t-25 -22
z" />
    <glyph glyph-name="yen" unicode="&#xa5;" horiz-adv-x="519" 
d="M435 103h-152v-79q0 -28 -25 -28q-24 0 -24 28v79h-152q-26 0 -26 23t26 23h152v62h-152q-26 0 -26 23t26 23h137l-200 305q-4 6 -4 12t3 12q6 12 19 12q15 0 29 -23l193 -293l193 293q14 23 29 23q13 0 19 -12q2 -6 2 -11q0 -7 -4 -13l-200 -305h137q26 0 26 -23
t-26 -23h-152v-62h152q26 0 26 -23t-26 -23z" />
    <glyph glyph-name="brokenbar" unicode="&#xa6;" horiz-adv-x="184" 
d="M74 299v318q0 27 24 27t24 -27v-318q0 -28 -24 -28t-24 28zM74 -113v318q0 28 24 28t24 -28v-318q0 -27 -24 -27t-24 27z" />
    <glyph glyph-name="section" unicode="&#xa7;" horiz-adv-x="564" 
d="M518 159q0 -77 -61 -122q12 -27 12 -63q0 -71 -57 -113t-146 -42q-117 0 -184 46q-18 13 -18 28q0 9 5.5 15.5t13.5 6.5q13 0 31 -15q56 -37 151 -37q75 0 116 31t41 81q0 52 -40 76t-121 40q-111 22 -167.5 61t-56.5 113q0 75 60 121q-12 27 -12 64q0 71 57 112.5
t146 41.5q121 0 185 -46q17 -13 17 -28q0 -9 -5 -15t-13 -6q-13 0 -32 14q-54 37 -150 37q-75 0 -116 -30.5t-41 -80.5q0 -53 40 -77t121 -40q111 -22 167.5 -60.5t56.5 -112.5zM294 285q-128 24 -171 64q-38 -32 -38 -84q0 -26 12 -46.5t28.5 -33t43.5 -23t45.5 -15
t46.5 -9.5q128 -24 170 -65q38 32 38 85q0 32 -16 55.5t-46 37.5t-53.5 20.5t-59.5 13.5z" />
    <glyph glyph-name="dieresis" unicode="&#xa8;" 
d="M141 525v28q0 12 9 21t20 9t20 -9t9 -21v-28q0 -12 -9 -21t-20 -9t-20 9t-9 21zM321 525v28q0 12 9 21t20 9t20 -9t9 -21v-28q0 -12 -9 -21t-20 -9t-20 9t-9 21z" />
    <glyph glyph-name="copyright" unicode="&#xa9;" horiz-adv-x="698" 
d="M45 297q0 131 86.5 219t217.5 88t217.5 -88t86.5 -219t-86.5 -219t-217.5 -88t-217.5 88t-86.5 219zM85 297q0 -118 74.5 -194t189.5 -76t189.5 76t74.5 194t-74.5 194t-189.5 76t-189.5 -76t-74.5 -194zM160 297q0 93 55 147t138 54q81 0 126 -45q9 -11 9 -22
q0 -16 -16 -16q-8 0 -17 9q-45 36 -102 36q-64 0 -107 -44t-43 -119t42.5 -119t106.5 -44q61 0 103 36q11 9 19 9q16 0 16 -16q0 -11 -9 -22q-47 -45 -128 -45q-83 0 -138 54t-55 147z" />
    <glyph glyph-name="ordfeminine" unicode="&#xaa;" horiz-adv-x="375" 
d="M289 445q0 52 -31.5 86.5t-79.5 34.5t-79 -34t-31 -87q0 -52 31 -86t79 -34t79.5 34t31.5 86zM329 575v-259q0 -23 -22 -23t-22 23v38q-10 -30 -42.5 -48.5t-70.5 -18.5q-63 0 -105 42.5t-42 115.5t42 116t105 43q38 0 70.5 -18.5t42.5 -48.5v38q0 23 22 23t22 -23z" />
    <glyph glyph-name="guillemotleft" unicode="&#xab;" horiz-adv-x="395" 
d="M214 384l-130 -129l130 -129q10 -10 10 -19q0 -8 -8 -15q-8 -8 -16 -8q-9 0 -18 9l-142 143q-9 8 -9 19t9 19l142 143q9 9 18 9q8 0 16 -8q8 -7 8 -15q0 -9 -10 -19zM343 384l-130 -129l130 -129q9 -10 9 -19q0 -8 -7 -15q-8 -8 -16 -8l-18 9l-142 143q-10 9 -10 19
t10 19l142 143q9 9 18 9l16 -8q7 -7 7 -15q0 -9 -9 -19z" />
    <glyph glyph-name="uni00AD" unicode="&#xad;" horiz-adv-x="312" 
d="M246 253h-180q-24 0 -24 22t24 22h180q25 0 25 -22t-25 -22z" />
    <glyph glyph-name="registered" unicode="&#xae;" horiz-adv-x="455" 
d="M227 225q-80 0 -133.5 54.5t-53.5 134.5q0 81 53 135.5t134 54.5t134.5 -54.5t53.5 -135.5q0 -80 -53.5 -134.5t-134.5 -54.5zM227 260q65 0 107 44.5t42 109.5q0 66 -42 110.5t-107 44.5t-106.5 -44.5t-41.5 -110.5q0 -65 42 -109.5t106 -44.5zM193 391v-60q0 -7 -5 -12
t-12 -5q-17 0 -17 17v166q0 17 17 17h43q76 0 76 -62q0 -44 -43 -55q9 -5 15 -16q6 -13 9 -18.5t8.5 -10.5t11.5 -5q15 0 15 -17q0 -16 -16 -16q-34 0 -53 42l-4 7q-2 5 -3.5 7t-3.5 6t-4 6t-4.5 4t-5.5 3.5t-6 1.5h-18zM260 452q0 32 -44 32h-23v-63h23q44 0 44 31z" />
    <glyph glyph-name="macron" unicode="&#xaf;" 
d="M347 536h-174q-25 0 -25 21q0 22 25 22h174q25 0 25 -22q0 -21 -25 -21z" />
    <glyph glyph-name="degree" unicode="&#xb0;" horiz-adv-x="350" 
d="M175 571q-41 0 -65 -26t-24 -69t24 -69t65 -26t65 26t24 69t-24 69t-65 26zM175 348q-59 0 -94 35.5t-35 92.5t35 92.5t94 35.5t94 -35.5t35 -92.5t-35 -92.5t-94 -35.5z" />
    <glyph glyph-name="uni00B2" unicode="&#xb2;" horiz-adv-x="446" 
d="M205 56l75 -20q27 -6 44 -6q32 0 47 19q11 13 21 13q19 0 19 -19q0 -17 -15 -32q-23 -21 -67 -21q-23 0 -68 9l-92 22q-19 3 -37 3q-33 0 -55 -17q-8 -7 -18 -7q-3 0 -8.5 -0.5t-8 -0.5t-5.5 1t-4.5 3.5t-1.5 7.5q0 9 4 16q2 11 10 18q71 59 114.5 99t92 94t72 104
t23.5 99q0 59 -31.5 89t-83.5 30q-72 0 -138 -49q-9 -7 -16 -7q-8 0 -14 6t-6 14t8 16q27 27 69.5 45.5t90.5 18.5q75 0 121 -41.5t46 -125.5q0 -88 -77.5 -187t-191.5 -188q5 1 17 1q29 0 64 -7z" />
    <glyph glyph-name="uni00B3" unicode="&#xb3;" horiz-adv-x="426" 
d="M147 302q0 14 14 17q78 20 115.5 54t37.5 89q0 46 -31 72.5t-78 26.5q-63 0 -125 -52q-7 -7 -16 -7q-19 0 -19 19q0 9 8 17q62 66 148 66q80 0 122 -42t42 -103q0 -56 -41 -102.5t-101 -53.5q66 -6 110.5 -47t44.5 -105q0 -67 -50 -114t-144 -47q-39 0 -80 12t-61 30
q-5 7 -5 15t6 13.5t14 5.5q5 0 17 -7q46 -29 111 -29t104 32.5t39 86.5q0 58 -38 88.5t-130 46.5q-14 3 -14 18z" />
    <glyph glyph-name="acute" unicode="&#xb4;" 
d="M328 564l-48 -65q-9 -12 -19 -12q-5 0 -11 3q-10 6 -10 17q0 6 3 14l31 73q12 27 30 27q8 0 18 -6q16 -9 16 -24q0 -12 -10 -27z" />
    <glyph glyph-name="paragraph" unicode="&#xb6;" horiz-adv-x="467" 
d="M28 413q0 181 237 181h89q24 0 24 -27v-720q0 -28 -24 -28q-25 0 -25 28v384h-43v-378q0 -33 -31 -33t-31 33v379q-196 16 -196 181zM224 276v137q0 33 31 33t31 -33v-139h43v277h-60q-97 0 -144 -32.5t-47 -105.5q0 -65 36 -97.5t110 -39.5z" />
    <glyph glyph-name="periodcentered" unicode="&#xb7;" horiz-adv-x="193" 
d="M62 275q0 14 10 24t24 10t24 -10t10 -24t-10 -24t-24 -10t-24 10t-10 24z" />
    <glyph glyph-name="cedilla" unicode="&#xb8;" 
d="M179 -164q-8 5 -12 14q-2 4 -2 8q0 5 3 10q6 11 15 11q6 0 13 -5q25 -16 44 -16q38 0 38 28q0 31 -49 44q-16 5 -16 17q0 5 2 10q4 13 19 13q7 0 15 -2q76 -21 76 -85q0 -28 -23 -45.5t-64 -17.5q-35 0 -59 16z" />
    <glyph glyph-name="uni00B9" unicode="&#xb9;" horiz-adv-x="291" 
d="M143 20v514q-33 -24 -97 -24q-7 0 -13 6t-6 14t6 15t13 7q67 0 105 42q4 5 16 5q10 0 17 -7t7 -17v-555q0 -10 -7 -17t-17 -7t-17 7t-7 17z" />
    <glyph glyph-name="ordmasculine" unicode="&#xba;" horiz-adv-x="359" 
d="M26 445q0 69 43.5 114t109.5 45q67 0 110.5 -44.5t43.5 -114.5q0 -69 -43.5 -113.5t-110.5 -44.5q-66 0 -109.5 44.5t-43.5 113.5zM289 445q0 53 -31.5 87.5t-78.5 34.5t-78.5 -34.5t-31.5 -87.5q0 -52 31.5 -86t78.5 -34t78.5 34t31.5 86z" />
    <glyph glyph-name="guillemotright" unicode="&#xbb;" horiz-adv-x="395" 
d="M182 255l-129 129q-10 10 -10 19q0 8 7 15q9 8 17 8q9 0 17 -9l143 -143q9 -9 9 -19t-9 -19l-143 -143q-8 -9 -17 -9q-8 0 -17 8q-7 7 -7 15q0 9 10 19zM311 255l-129 129q-10 10 -10 19q0 8 7 15q8 8 16 8l18 -9l143 -143q9 -9 9 -19t-9 -19l-143 -143q-9 -9 -18 -9
l-16 8q-7 7 -7 15q0 9 10 19z" />
    <glyph glyph-name="questiondown" unicode="&#xbf;" horiz-adv-x="375" 
d="M211 166l-7 77q-1 11 7 19t20 8q25 0 27 -27l4 -81q0 -22 -21 -25q-79 -17 -119 -48t-40 -96q0 -54 36 -88.5t110 -34.5q56 0 98 27q9 7 15 7q8 0 14.5 -6t6.5 -14q0 -7 -5 -15q-17 -16 -53.5 -27.5t-74.5 -11.5q-101 0 -149.5 48t-48.5 115q0 129 180 173zM265 403
q0 -14 -10 -24t-24 -10t-24 10t-10 24t10 24t24 10t24 -10t10 -24z" />
    <glyph glyph-name="Agrave" unicode="&#xc0;" horiz-adv-x="504" 
d="M252 598q31 0 43 -36l184 -530q3 -7 3 -13q0 -8 -4 -13q-7 -10 -21 -10q-17 0 -26 24l-53 155h-252l-53 -155q-9 -24 -26 -24q-14 0 -21 10q-4 5 -4 13q0 6 3 13l184 530q12 36 43 36zM252 545l-112 -327h223zM271 648q-5 -10 -17 -10q-6 0 -14 3l-72 32q-26 11 -26 30
q0 8 5 17q9 16 24 16q12 0 27 -10l64 -48q12 -9 12 -20q0 -5 -3 -10z" />
    <glyph glyph-name="Aacute" unicode="&#xc1;" horiz-adv-x="504" 
d="M252 598q31 0 43 -36l184 -530q3 -7 3 -13q0 -8 -4 -13q-7 -10 -21 -10q-17 0 -26 24l-53 155h-252l-53 -155q-9 -24 -26 -24q-14 0 -21 10q-4 5 -4 13q0 6 3 13l184 530q12 36 43 36zM252 545l-112 -327h223zM233 648q-3 5 -3 10q0 11 12 20l64 48q15 10 27 10
q15 0 24 -16q5 -9 5 -17q0 -19 -26 -30l-72 -32q-8 -3 -14 -3q-12 0 -17 10z" />
    <glyph glyph-name="Acircumflex" unicode="&#xc2;" horiz-adv-x="504" 
d="M252 598q31 0 43 -36l184 -530q3 -7 3 -13q0 -8 -4 -13q-7 -10 -21 -10q-17 0 -26 24l-53 155h-252l-53 -155q-9 -24 -26 -24q-14 0 -21 10q-4 5 -4 13q0 6 3 13l184 530q12 36 43 36zM252 545l-112 -327h223zM252 681l-64 -40q-9 -6 -16 -6q-9 0 -16 7q-6 7 -6 14
q0 11 15 22l59 45q15 12 28 12q14 0 28 -12l59 -45q15 -11 15 -22q0 -7 -6 -14q-7 -7 -15 -7t-17 6z" />
    <glyph glyph-name="Atilde" unicode="&#xc3;" horiz-adv-x="504" 
d="M252 598q31 0 43 -36l184 -530q3 -7 3 -13q0 -8 -4 -13q-7 -10 -21 -10q-17 0 -26 24l-53 155h-252l-53 -155q-9 -24 -26 -24q-14 0 -21 10q-4 5 -4 13q0 6 3 13l184 530q12 36 43 36zM252 545l-112 -327h223zM252 677l-24 11q-8 4 -14.5 6t-13 1.5t-10 -0.5t-9.5 -4
t-8 -5.5t-8.5 -7.5t-8.5 -7q-6 -6 -14 -6l-1 1q-8 0 -13 7q-7 7 -7 15q0 13 20 28q26 21 58 21q25 0 53 -13l24 -11q9 -5 17.5 -6.5t13.5 -2t12.5 3.5t9 5t10 8.5t9.5 8.5q8 7 15 7q8 0 14 -9q6 -7 6 -15q0 -13 -20 -28q-26 -20 -58 -20q-25 0 -53 12z" />
    <glyph glyph-name="Adieresis" unicode="&#xc4;" horiz-adv-x="504" 
d="M252 598q31 0 43 -36l184 -530q3 -7 3 -13q0 -8 -4 -13q-7 -10 -21 -10q-17 0 -26 24l-53 155h-252l-53 -155q-9 -24 -26 -24q-14 0 -21 10q-4 5 -4 13q0 6 3 13l184 530q12 36 43 36zM252 545l-112 -327h223zM313 686v28q0 12 9.5 21.5t20.5 9.5t20.5 -9.5t9.5 -21.5
v-28q0 -12 -9.5 -21.5t-20.5 -9.5t-20.5 9.5t-9.5 21.5zM132 686v28q0 13 9 22t20 9q12 0 21 -9t9 -22v-28q0 -13 -9 -22t-21 -9q-11 0 -20 9t-9 22z" />
    <glyph glyph-name="Aring" unicode="&#xc5;" horiz-adv-x="504" 
d="M252 598q31 0 43 -36l184 -530q3 -7 3 -13q0 -8 -4 -13q-7 -10 -21 -10q-17 0 -26 24l-53 155h-252l-53 -155q-9 -24 -26 -24q-14 0 -21 10q-4 5 -4 13q0 6 3 13l184 530q12 36 43 36zM252 545l-112 -327h223zM252 600q-32 0 -51 18t-19 49t19 49.5t51 18.5t50.5 -18.5
t18.5 -49.5t-18.5 -49t-50.5 -18zM208 667q0 -44 44 -44t44 44t-44 44t-44 -44z" />
    <glyph glyph-name="AE" unicode="&#xc6;" horiz-adv-x="729" 
d="M250 594h414q23 0 23 -21t-23 -21h-366l79 -226h255q23 0 23 -22q0 -21 -23 -21h-240l84 -241h187q24 0 24 -21t-24 -21h-207q-17 0 -26 24l-52 151h-252l-53 -155q-9 -24 -26 -24q-14 0 -21 10q-4 5 -4 13q0 6 3 13l182 526q12 36 43 36zM252 545l-112 -327h223z" />
    <glyph glyph-name="Ccedilla" unicode="&#xc7;" horiz-adv-x="575" 
d="M45 297q0 135 86 221t211 86q101 0 168 -54q17 -14 17 -27q0 -9 -6 -14.5t-15 -5.5q-15 0 -29 12q-35 25 -62.5 34.5t-73.5 9.5q-104 0 -175.5 -72.5t-71.5 -189.5t71.5 -189.5t175.5 -72.5q46 0 76 10t64 34q15 13 29 13q8 0 14.5 -6t6.5 -15q0 -13 -17 -27
q-69 -54 -172 -54q-125 0 -211 86t-86 221zM252 -164q-8 5 -12 14q-3 4 -3 9q0 4 3 9q6 11 15 11q6 0 14 -5q25 -16 43 -16q38 0 38 28q0 32 -48 44q-17 5 -17 18q0 4 2 9q6 13 20 13q6 0 14 -2q76 -20 76 -85q0 -28 -22.5 -45.5t-63.5 -17.5q-36 0 -59 16z" />
    <glyph glyph-name="Egrave" unicode="&#xc8;" horiz-adv-x="480" 
d="M89 27v540q0 27 24 27h302q24 0 24 -21t-24 -21h-277v-226h245q24 0 24 -22q0 -21 -24 -21h-245v-241h276q24 0 24 -21t-24 -21h-301q-24 0 -24 27zM283 648q-7 -10 -18 -10q-6 0 -13 3l-72 32q-26 10 -26 29q0 8 5 18q9 16 24 16q12 0 27 -10l63 -48q13 -9 13 -19
q0 -6 -3 -11z" />
    <glyph glyph-name="Eacute" unicode="&#xc9;" horiz-adv-x="480" 
d="M89 27v540q0 27 24 27h302q24 0 24 -21t-24 -21h-277v-226h245q24 0 24 -22q0 -21 -24 -21h-245v-241h276q24 0 24 -21t-24 -21h-301q-24 0 -24 27zM244 648q-3 5 -3 10q0 11 12 20l64 48q15 10 27 10q15 0 24 -16q5 -9 5 -17q0 -19 -26 -30l-72 -32q-8 -3 -14 -3
q-11 0 -17 10z" />
    <glyph glyph-name="Ecircumflex" unicode="&#xca;" horiz-adv-x="480" 
d="M89 27v540q0 27 24 27h302q24 0 24 -21t-24 -21h-277v-226h245q24 0 24 -22q0 -21 -24 -21h-245v-241h276q24 0 24 -21t-24 -21h-301q-24 0 -24 27zM263 681l-63 -40q-10 -6 -18 -6t-15 7q-5 7 -5 14q0 11 14 22l59 45q15 12 28 12q14 0 29 -12l59 -45q14 -11 14 -22
q0 -7 -5 -14q-7 -7 -15 -7t-18 6z" />
    <glyph glyph-name="Edieresis" unicode="&#xcb;" horiz-adv-x="480" 
d="M89 27v540q0 27 24 27h302q24 0 24 -21t-24 -21h-277v-226h245q24 0 24 -22q0 -21 -24 -21h-245v-241h276q24 0 24 -21t-24 -21h-301q-24 0 -24 27zM143 671v28q0 13 9 22t21 9q11 0 20 -9t9 -22v-28q0 -13 -9 -22t-20 -9q-12 0 -21 9t-9 22zM324 671v28q0 13 9 22t21 9
t21 -9t9 -22v-28q0 -13 -9 -22t-21 -9t-21 9t-9 22z" />
    <glyph glyph-name="Igrave" unicode="&#xcc;" horiz-adv-x="226" 
d="M137 570v-546q0 -28 -24 -28t-24 28v546q0 28 24 28t24 -28zM132 648q-5 -10 -17 -10q-6 0 -14 3l-72 32q-26 11 -26 30q0 8 5 17q9 16 24 16q12 0 27 -10l64 -48q12 -9 12 -20q0 -5 -3 -10z" />
    <glyph glyph-name="Iacute" unicode="&#xcd;" horiz-adv-x="226" 
d="M137 570v-546q0 -28 -24 -28t-24 28v546q0 28 24 28t24 -28zM94 648q-3 5 -3 10q0 11 12 20l64 48q15 10 27 10q15 0 24 -16q5 -9 5 -17q0 -19 -26 -30l-72 -32q-8 -3 -14 -3q-12 0 -17 10z" />
    <glyph glyph-name="Icircumflex" unicode="&#xce;" horiz-adv-x="226" 
d="M137 570v-546q0 -28 -24 -28t-24 28v546q0 28 24 28t24 -28zM113 681l-64 -40q-9 -6 -16 -6q-9 0 -16 7q-6 7 -6 14q0 11 15 22l59 45q15 12 28 12t28 -12l59 -45q15 -11 15 -22q0 -7 -6 -14q-7 -7 -15 -7t-17 6z" />
    <glyph glyph-name="Idieresis" unicode="&#xcf;" horiz-adv-x="226" 
d="M137 570v-546q0 -28 -24 -28t-24 28v546q0 28 24 28t24 -28zM16 671v28q0 13 9 22t20 9q12 0 21 -9t9 -22v-28q0 -13 -9 -22t-21 -9q-11 0 -20 9t-9 22zM151 671v28q0 13 9.5 22t20.5 9t20.5 -9t9.5 -22v-28q0 -13 -9.5 -22t-20.5 -9t-20.5 9t-9.5 22z" />
    <glyph glyph-name="Eth" unicode="&#xd0;" horiz-adv-x="650" 
d="M238 0h-93q-25 0 -25 27v249h-79q-24 0 -24 21q0 22 24 22h79v248q0 27 25 27h93q176 0 272 -72t96 -217q0 -155 -95.5 -230t-272.5 -75zM169 42h62q325 0 325 264q0 246 -325 246h-62v-233h179q24 0 24 -22q0 -21 -24 -21h-179v-234z" />
    <glyph glyph-name="Ntilde" unicode="&#xd1;" horiz-adv-x="656" 
d="M504 18l-366 497v-491q0 -28 -25 -28q-24 0 -24 28v545q0 29 26 29q19 0 37 -22l366 -501v495q0 28 25 28t25 -28v-545q0 -29 -27 -29q-21 0 -37 22zM328 677l-24 11q-8 4 -14.5 6t-13 1.5t-10 -0.5t-9.5 -4t-8 -5.5t-8.5 -7.5t-8.5 -7q-7 -7 -14 -7q-8 0 -14 9
q-7 7 -7 15q0 13 20 28q26 21 58 21q25 0 53 -13l24 -11q9 -5 17.5 -6.5t13.5 -2t12.5 3.5t9 5t10 8.5t9.5 8.5q8 7 15 7q8 0 14 -9q6 -7 6 -15q0 -13 -20 -28q-26 -20 -58 -20q-25 0 -53 12z" />
    <glyph glyph-name="Ograve" unicode="&#xd2;" horiz-adv-x="685" 
d="M362 648q-5 -10 -17 -10q-6 0 -14 3l-72 32q-26 11 -26 30q0 8 5 17q9 16 24 16q12 0 27 -10l64 -48q12 -9 12 -20q0 -5 -3 -10zM94 297q0 -117 72 -190t177 -73t176.5 73t71.5 190t-71.5 190t-176.5 73t-177 -73t-72 -190zM45 297q0 135 86 221t212 86t212 -86t86 -221
t-86 -221t-212 -86t-212 86t-86 221z" />
    <glyph glyph-name="Oacute" unicode="&#xd3;" horiz-adv-x="685" 
d="M323 648q-3 5 -3 11q0 10 13 19l64 48q14 10 26 10q14 0 24 -16q6 -10 6 -18q0 -18 -26 -29l-72 -32q-8 -3 -14 -3q-11 0 -18 10zM591 297q0 117 -71.5 190t-176.5 73t-177 -73t-72 -190t72 -190t177 -73t176.5 73t71.5 190zM641 297q0 -135 -86 -221t-212 -86t-212 86
t-86 221t86 221t212 86t212 -86t86 -221z" />
    <glyph glyph-name="Ocircumflex" unicode="&#xd4;" horiz-adv-x="685" 
d="M591 297q0 117 -71.5 190t-176.5 73t-177 -73t-72 -190t72 -190t177 -73t176.5 73t71.5 190zM641 297q0 -135 -86 -221t-212 -86t-212 86t-86 221t86 221t212 86t212 -86t86 -221zM343 681l-64 -40q-9 -6 -17 -6q-9 0 -16 7q-5 7 -5 14q0 11 14 22l60 45q13 12 28 12
q13 0 28 -12l59 -45q15 -10 15 -22q0 -7 -6 -14q-7 -7 -16 -7q-7 0 -16 6z" />
    <glyph glyph-name="Otilde" unicode="&#xd5;" horiz-adv-x="685" 
d="M94 297q0 -117 72 -190t177 -73t176.5 73t71.5 190t-71.5 190t-176.5 73t-177 -73t-72 -190zM45 297q0 135 86 221t212 86t212 -86t86 -221t-86 -221t-212 -86t-212 86t-86 221zM343 677l-25 11q-9 5 -17.5 6.5t-13 2t-12 -3.5t-9 -5t-10 -8.5t-9.5 -8.5q-8 -7 -15 -7
q-8 0 -14 9q-6 7 -6 15q0 13 20 28q26 21 58 21q25 0 53 -13l24 -11q8 -4 14.5 -6t13 -1.5t10 0.5t9.5 4t8 5.5t8.5 7.5t8.5 7q7 7 14 7q8 0 14 -9q6 -7 6 -15q0 -13 -19 -28q-26 -20 -58 -20q-25 0 -53 12z" />
    <glyph glyph-name="Odieresis" unicode="&#xd6;" horiz-adv-x="685" 
d="M94 297q0 -117 72 -190t177 -73t176.5 73t71.5 190t-71.5 190t-176.5 73t-177 -73t-72 -190zM45 297q0 135 86 221t212 86t212 -86t86 -221t-86 -221t-212 -86t-212 86t-86 221zM222 686v28q0 12 9 21.5t21 9.5t21 -9.5t9 -21.5v-28q0 -12 -9 -21.5t-21 -9.5t-21 9.5
t-9 21.5zM404 686v28q0 13 9 22t21 9q11 0 20 -9t9 -22v-28q0 -13 -9 -22t-20 -9q-12 0 -21 9t-9 22z" />
    <glyph glyph-name="Oslash" unicode="&#xd8;" horiz-adv-x="685" 
d="M622 548l-49 -51q68 -84 68 -200q0 -135 -86 -221t-212 -86q-113 0 -195 69l-48 -50q-10 -9 -20 -9t-19 9q-8 8 -8 17t10 20l49 51q-67 83 -67 200q0 135 86 221t212 86q113 0 194 -70l49 51q9 11 19 11l19 -11q9 -8 9 -17t-11 -20zM94 297q0 -97 51 -166l359 370
q-67 59 -161 59q-105 0 -177 -73t-72 -190zM591 297q0 95 -52 166l-358 -370q68 -59 162 -59q105 0 176.5 73t71.5 190z" />
    <glyph glyph-name="Ugrave" unicode="&#xd9;" horiz-adv-x="627" 
d="M313 -10q-103 0 -173 66.5t-70 182.5v331q0 28 24 28t24 -28v-329q0 -96 55 -152t140 -56q86 0 140.5 55.5t54.5 152.5v329q0 28 25 28q24 0 24 -28v-331q0 -116 -70 -182.5t-174 -66.5zM333 648q-7 -10 -18 -10q-6 0 -13 3l-73 32q-26 11 -26 29q0 8 6 18q10 16 24 16
q12 0 26 -10l64 -48q13 -9 13 -19q0 -6 -3 -11z" />
    <glyph glyph-name="Uacute" unicode="&#xda;" horiz-adv-x="627" 
d="M313 -10q-103 0 -173 66.5t-70 182.5v331q0 28 24 28t24 -28v-329q0 -96 55 -152t140 -56q86 0 140.5 55.5t54.5 152.5v329q0 28 25 28q24 0 24 -28v-331q0 -116 -70 -182.5t-174 -66.5zM294 648q-3 5 -3 10q0 11 12 20l64 48q15 10 27 10q15 0 24 -16q5 -9 5 -17
q0 -19 -26 -30l-72 -32q-8 -3 -14 -3q-11 0 -17 10z" />
    <glyph glyph-name="Ucircumflex" unicode="&#xdb;" horiz-adv-x="627" 
d="M313 -10q-103 0 -173 66.5t-70 182.5v331q0 28 24 28t24 -28v-329q0 -96 55 -152t140 -56q86 0 140.5 55.5t54.5 152.5v329q0 28 25 28q24 0 24 -28v-331q0 -116 -70 -182.5t-174 -66.5zM313 681l-63 -40q-10 -6 -18 -6t-15 7q-5 7 -5 14q0 11 14 22l59 45q15 12 28 12
q14 0 29 -12l59 -45q14 -11 14 -22q0 -7 -5 -14q-7 -7 -16 -7q-8 0 -17 6z" />
    <glyph glyph-name="Udieresis" unicode="&#xdc;" horiz-adv-x="627" 
d="M313 -10q-103 0 -173 66.5t-70 182.5v331q0 28 24 28t24 -28v-329q0 -96 55 -152t140 -56q86 0 140.5 55.5t54.5 152.5v329q0 28 25 28q24 0 24 -28v-331q0 -116 -70 -182.5t-174 -66.5zM193 686v28q0 13 9 22t21 9q11 0 20 -9t9 -22v-28q0 -13 -9 -22t-20 -9
q-12 0 -21 9t-9 22zM374 686v28q0 12 9 21.5t21 9.5t21 -9.5t9 -21.5v-28q0 -12 -9 -21.5t-21 -9.5t-21 9.5t-9 21.5z" />
    <glyph glyph-name="Yacute" unicode="&#xdd;" horiz-adv-x="517" 
d="M283 234v-210q0 -28 -25 -28q-24 0 -24 28v210l-215 328q-4 6 -4 12t3 12q6 12 19 12q15 0 29 -23l193 -293l193 293q14 23 29 23q13 0 19 -12q2 -6 2 -11q0 -7 -4 -13zM239 648q-3 5 -3 10q0 11 12 20l64 48q15 10 27 10q15 0 24 -16q5 -9 5 -17q0 -19 -26 -30l-72 -32
q-8 -3 -14 -3q-12 0 -17 10z" />
    <glyph glyph-name="Thorn" unicode="&#xde;" horiz-adv-x="472" 
d="M89 24v546q0 28 24 28q25 0 25 -28v-92h64q237 0 237 -181t-237 -181h-64v-92q0 -28 -25 -28q-24 0 -24 28zM138 159h60q97 0 143.5 32.5t46.5 105.5t-46.5 105.5t-143.5 32.5h-60v-276z" />
    <glyph glyph-name="germandbls" unicode="&#xdf;" horiz-adv-x="508" 
d="M335 -10q-90 0 -132 40q-11 11 -11 24q0 8 6 14t15 6q10 0 23.5 -11t37.5 -22t58 -11q40 0 70.5 20t30.5 66q0 30 -19.5 52t-47.5 36l-56 28q-28 14 -47.5 39.5t-19.5 61.5q0 29 15.5 54t33.5 40t33.5 36.5t15.5 43.5q0 77 -102 77q-118 0 -118 -125v-435q0 -28 -24 -28
t-24 28v443q0 70 44.5 113.5t121.5 43.5q66 0 106.5 -29t40.5 -88q0 -29 -14.5 -53t-32.5 -38.5t-32.5 -37t-14.5 -47.5q0 -26 19.5 -45.5t48 -33t56.5 -28.5t47.5 -42.5t19.5 -65.5q0 -51 -41 -88.5t-107 -37.5z" />
    <glyph glyph-name="agrave" unicode="&#xe0;" horiz-adv-x="550" 
d="M428 217q0 80 -48 132.5t-121 52.5q-75 0 -122.5 -52t-47.5 -133t47.5 -133t122.5 -52q73 0 121 52.5t48 132.5zM424 341v68q0 28 24 28t24 -28v-384q0 -28 -24 -28t-24 28v68q-16 -44 -64.5 -73.5t-102.5 -29.5q-92 0 -154 60.5t-62 166.5t62 166.5t154 60.5
q54 0 102.5 -29.5t64.5 -73.5zM265 490q-6 -3 -11 -3q-10 0 -19 12l-48 65q-11 15 -11 26q0 15 17 25q9 6 18 6q17 0 29 -27l32 -73q3 -8 3 -14q0 -11 -10 -17z" />
    <glyph glyph-name="aacute" unicode="&#xe1;" horiz-adv-x="550" 
d="M428 217q0 80 -48 132.5t-121 52.5q-75 0 -122.5 -52t-47.5 -133t47.5 -133t122.5 -52q73 0 121 52.5t48 132.5zM424 341v68q0 28 24 28t24 -28v-384q0 -28 -24 -28t-24 28v68q-16 -44 -64.5 -73.5t-102.5 -29.5q-92 0 -154 60.5t-62 166.5t62 166.5t154 60.5
q54 0 102.5 -29.5t64.5 -73.5zM244 490q-10 6 -10 17q0 6 3 14l32 73q12 27 30 27q8 0 18 -6q16 -9 16 -24q0 -12 -10 -27l-49 -65q-9 -12 -19 -12q-5 0 -11 3z" />
    <glyph glyph-name="acircumflex" unicode="&#xe2;" horiz-adv-x="550" 
d="M428 217q0 80 -48 132.5t-121 52.5q-75 0 -122.5 -52t-47.5 -133t47.5 -133t122.5 -52q73 0 121 52.5t48 132.5zM424 341v68q0 28 24 28t24 -28v-384q0 -28 -24 -28t-24 28v68q-16 -44 -64.5 -73.5t-102.5 -29.5q-92 0 -154 60.5t-62 166.5t62 166.5t154 60.5
q54 0 102.5 -29.5t64.5 -73.5zM255 559l-65 -66q-7 -8 -16 -9h-2q-8 0 -14 7q-8 8 -8 16.5t8 16.5l72 81q12 14 25 14q12 0 24 -14l72 -81q8 -9 8 -18q0 -8 -7 -15q-8 -7 -15 -7q-9 0 -18 9z" />
    <glyph glyph-name="atilde" unicode="&#xe3;" horiz-adv-x="550" 
d="M428 217q0 80 -48 132.5t-121 52.5q-75 0 -122.5 -52t-47.5 -133t47.5 -133t122.5 -52q73 0 121 52.5t48 132.5zM424 341v68q0 28 24 28t24 -28v-384q0 -28 -24 -28t-24 28v68q-16 -44 -64.5 -73.5t-102.5 -29.5q-92 0 -154 60.5t-62 166.5t62 166.5t154 60.5
q54 0 102.5 -29.5t64.5 -73.5zM255 514l-25 11q-9 5 -17.5 6.5t-13 2t-12 -3.5t-9 -5t-10 -8.5t-9.5 -8.5q-8 -7 -15 -7q-8 0 -14 9q-6 7 -6 14q0 14 20 28q27 22 59 22q24 0 52 -13l24 -12q6 -3 11.5 -5t10.5 -2t8.5 -0.5t8.5 1.5t7 2.5t6.5 4.5t6 5t7 6t6.5 6q7 6 14 6
q8 0 14 -8q6 -7 6 -15q0 -14 -19 -28q-26 -20 -58 -20q-25 0 -53 12z" />
    <glyph glyph-name="adieresis" unicode="&#xe4;" horiz-adv-x="550" 
d="M428 217q0 80 -48 132.5t-121 52.5q-75 0 -122.5 -52t-47.5 -133t47.5 -133t122.5 -52q73 0 121 52.5t48 132.5zM424 341v68q0 28 24 28t24 -28v-384q0 -28 -24 -28t-24 28v68q-16 -44 -64.5 -73.5t-102.5 -29.5q-92 0 -154 60.5t-62 166.5t62 166.5t154 60.5
q54 0 102.5 -29.5t64.5 -73.5zM136 525v28q0 12 9 21t20 9t20 -9t9 -21v-28q0 -12 -9 -21t-20 -9t-20 9t-9 21zM316 525v28q0 12 9 21t20 9t20 -9t9 -21v-28q0 -12 -9 -21t-20 -9t-20 9t-9 21z" />
    <glyph glyph-name="aring" unicode="&#xe5;" horiz-adv-x="550" 
d="M428 217q0 80 -48 132.5t-121 52.5q-75 0 -122.5 -52t-47.5 -133t47.5 -133t122.5 -52q73 0 121 52.5t48 132.5zM424 341v68q0 28 24 28t24 -28v-384q0 -28 -24 -28t-24 28v68q-16 -44 -64.5 -73.5t-102.5 -29.5q-92 0 -154 60.5t-62 166.5t62 166.5t154 60.5
q54 0 102.5 -29.5t64.5 -73.5zM255 485q-32 0 -50.5 18t-18.5 49t18.5 49t50.5 18t50.5 -18t18.5 -49t-18.5 -49t-50.5 -18zM212 552q0 -43 43 -43t43 43t-43 43t-43 -43z" />
    <glyph glyph-name="ae" unicode="&#xe6;" horiz-adv-x="808" 
d="M683 75q11 11 20 11q19 0 19 -19q0 -14 -11 -25q-52 -52 -148 -52q-123 0 -183 91q-63 -91 -175 -91q-60 0 -102 35t-42 100q0 75 61 107.5t159 32.5h65v25q0 52 -29 80t-86 28q-56 0 -100 -28q-14 -8 -25 -8q-20 0 -20 21q0 14 20 28q21 14 59 23.5t70 9.5
q117 0 149 -92q29 43 72.5 67.5t94.5 24.5q82 0 131.5 -48t49.5 -141q0 -35 -29 -35h-308v-11q1 -81 49.5 -128.5t117.5 -47.5q73 0 121 42zM359 124q-15 39 -15 91v5h-66q-79 0 -123 -21t-44 -76q0 -45 29 -67.5t72 -22.5q99 0 147 91zM548 400q-55 0 -95.5 -35.5
t-53.5 -99.5h283q-6 135 -134 135z" />
    <glyph glyph-name="ccedilla" unicode="&#xe7;" horiz-adv-x="450" 
d="M41 217q0 105 62 166t155 61q91 0 141 -52q11 -11 11 -23q0 -20 -18 -20q-9 0 -20 11q-50 41 -114 41q-72 0 -120.5 -50t-48.5 -134q0 -85 48 -134.5t121 -49.5q67 0 116 41q10 10 20 10q18 0 18 -19q0 -12 -11 -23q-50 -52 -143 -52t-155 61t-62 166zM179 -164
q-8 5 -13 14q-2 4 -2 9q0 4 3 9q6 11 15 11q6 0 14 -5q25 -16 43 -16q38 0 38 28q0 32 -48 44q-17 5 -17 18q0 4 2 9q6 13 20 13q6 0 14 -2q76 -20 76 -85q0 -28 -22.5 -45.5t-63.5 -17.5q-36 0 -59 16z" />
    <glyph glyph-name="egrave" unicode="&#xe8;" horiz-adv-x="473" 
d="M378 75q11 11 20 11q18 0 18 -19q0 -14 -11 -25q-51 -52 -148 -52q-94 0 -155 61.5t-61 166.5q0 96 59 161t145 65q82 0 131.5 -48t49.5 -141q0 -35 -29 -35h-308v-2q-1 -84 48 -134.5t120 -50.5q72 0 121 42zM242 400q-54 0 -94.5 -35.5t-54.5 -99.5h284
q-7 135 -135 135zM249 490q-6 -3 -11 -3q-10 0 -19 12l-48 65q-11 15 -11 26q0 15 17 25q9 6 18 6q17 0 29 -27l32 -73q3 -8 3 -14q0 -11 -10 -17z" />
    <glyph glyph-name="eacute" unicode="&#xe9;" horiz-adv-x="473" 
d="M378 75q11 11 20 11q18 0 18 -19q0 -14 -11 -25q-51 -52 -148 -52q-94 0 -155 61.5t-61 166.5q0 96 59 161t145 65q82 0 131.5 -48t49.5 -141q0 -35 -29 -35h-308v-2q-1 -84 48 -134.5t120 -50.5q72 0 121 42zM242 400q-54 0 -94.5 -35.5t-54.5 -99.5h284
q-7 135 -135 135zM229 490q-11 6 -11 18q0 6 3 13l32 73q12 27 30 27q8 0 18 -6q16 -9 16 -24q0 -12 -10 -27l-48 -65q-9 -12 -19 -12q-5 0 -11 3z" />
    <glyph glyph-name="ecircumflex" unicode="&#xea;" horiz-adv-x="473" 
d="M378 75q11 11 20 11q18 0 18 -19q0 -14 -11 -25q-51 -52 -148 -52q-94 0 -155 61.5t-61 166.5q0 96 59 161t145 65q82 0 131.5 -48t49.5 -141q0 -35 -29 -35h-308v-2q-1 -84 48 -134.5t120 -50.5q72 0 121 42zM242 400q-54 0 -94.5 -35.5t-54.5 -99.5h284
q-7 135 -135 135zM239 559l-65 -66q-7 -8 -16 -9h-2q-8 0 -14 7q-8 7 -8 15.5t8 17.5l72 81q12 14 25 14q11 0 25 -14l71 -81q8 -9 8 -18q0 -8 -7 -15q-8 -7 -15 -7q-9 0 -18 9z" />
    <glyph glyph-name="edieresis" unicode="&#xeb;" horiz-adv-x="473" 
d="M378 75q11 11 20 11q18 0 18 -19q0 -14 -11 -25q-51 -52 -148 -52q-94 0 -155 61.5t-61 166.5q0 96 59 161t145 65q82 0 131.5 -48t49.5 -141q0 -35 -29 -35h-308v-2q-1 -84 48 -134.5t120 -50.5q72 0 121 42zM242 400q-54 0 -94.5 -35.5t-54.5 -99.5h284
q-7 135 -135 135zM120 525v28q0 12 9 21t20 9t20 -9t9 -21v-28q0 -12 -9 -21t-20 -9t-20 9t-9 21zM300 525v28q0 12 9 21t20 9t20 -9t9 -21v-28q0 -12 -9 -21t-20 -9t-20 9t-9 21z" />
    <glyph glyph-name="igrave" unicode="&#xec;" horiz-adv-x="205" 
d="M126 410v-386q0 -28 -24 -28q-23 0 -23 28v386q0 28 23 28q24 0 24 -28zM113 490q-5 -3 -10 -3q-11 0 -20 12l-49 65q-10 15 -10 27q0 15 16 24q10 6 18 6q18 0 30 -27l32 -73q3 -8 3 -14q0 -11 -10 -17z" />
    <glyph glyph-name="iacute" unicode="&#xed;" horiz-adv-x="205" 
d="M126 410v-386q0 -28 -24 -28q-23 0 -23 28v386q0 28 23 28q24 0 24 -28zM92 490q-10 6 -10 17q0 6 3 14l32 73q12 27 29 27q9 0 18 -6q17 -10 17 -25q0 -11 -11 -26l-48 -65q-9 -12 -19 -12q-5 0 -11 3z" />
    <glyph glyph-name="icircumflex" unicode="&#xee;" horiz-adv-x="205" 
d="M126 410v-386q0 -28 -24 -28q-23 0 -23 28v386q0 28 23 28q24 0 24 -28zM102 559l-64 -66q-10 -9 -18 -9t-15 7q-7 8 -7 16t8 17l72 81q12 14 24 14q13 0 25 -14l72 -81q8 -9 8 -17t-7 -16q-8 -7 -15 -7q-9 0 -18 9z" />
    <glyph glyph-name="idieresis" unicode="&#xef;" horiz-adv-x="205" 
d="M126 410v-386q0 -28 -24 -28q-23 0 -23 28v386q0 28 23 28q24 0 24 -28zM12 525v28q0 12 9 21t20 9t20 -9t9 -21v-28q0 -12 -9 -21t-20 -9t-20 9t-9 21zM135 525v28q0 12 9 21t20 9t20 -9t9 -21v-28q0 -12 -9 -21t-20 -9t-20 9t-9 21z" />
    <glyph glyph-name="eth" unicode="&#xf0;" 
d="M310 572l-35 -21q203 -120 203 -334q0 -98 -62 -162.5t-156 -64.5q-95 0 -157 64.5t-62 162.5t62 162.5t157 64.5q73 0 130 -54q-50 76 -161 134l-70 -42q-9 -5 -16 -5q-12 0 -19 12q-4 6 -4 12q0 11 16 20l43 26q-26 12 -57 23q-20 9 -20 24q0 4 1 8q3 14 19 14
q8 0 20 -4q45 -17 85 -36l60 36q9 5 16 5q12 0 19 -12q3 -6 3 -11q0 -12 -15 -22zM90 217q0 -80 48 -132.5t122 -52.5q73 0 121 52.5t48 132.5t-48 132.5t-121 52.5q-74 0 -122 -52.5t-48 -132.5z" />
    <glyph glyph-name="ntilde" unicode="&#xf1;" horiz-adv-x="509" 
d="M126 410v-59q20 42 60 67.5t93 25.5q72 0 114 -39t42 -117v-264q0 -28 -24 -28t-24 28v252q0 122 -120 122q-62 0 -101.5 -39.5t-39.5 -114.5v-220q0 -28 -24 -28q-23 0 -23 28v386q0 28 23 28q24 0 24 -28zM265 514l-24 11q-9 5 -17.5 6.5t-13.5 2t-12.5 -3.5t-9 -5
t-10 -8.5t-9.5 -8.5q-8 -7 -15 -7q-8 0 -14 9q-6 7 -6 14q0 14 20 28q27 22 59 22q24 0 52 -13l24 -12q6 -3 11.5 -5t10.5 -2t8.5 -0.5t8.5 1.5t7 2.5t6.5 4.5t6 5t7 6t6.5 6q7 5 15.5 5t12.5 -7q6 -7 6 -15q0 -13 -19 -28q-26 -20 -58 -20q-25 0 -53 12z" />
    <glyph glyph-name="ograve" unicode="&#xf2;" 
d="M429 217q0 80 -48 132.5t-121 52.5q-74 0 -122 -52.5t-48 -132.5t48 -132.5t122 -52.5q73 0 121 52.5t48 132.5zM478 217q0 -98 -62 -162.5t-156 -64.5q-95 0 -157 64.5t-62 162.5t62 162.5t157 64.5q94 0 156 -64.5t62 -162.5zM270 490q-6 -3 -11 -3q-10 0 -19 12
l-48 65q-11 15 -11 26q0 15 17 25q9 6 17 6q18 0 30 -27l32 -73q3 -8 3 -14q0 -11 -10 -17z" />
    <glyph glyph-name="oacute" unicode="&#xf3;" 
d="M90 217q0 -80 48 -132.5t122 -52.5q73 0 121 52.5t48 132.5t-48 132.5t-121 52.5q-74 0 -122 -52.5t-48 -132.5zM41 217q0 98 62 162.5t157 64.5q94 0 156 -64.5t62 -162.5t-62 -162.5t-156 -64.5q-95 0 -157 64.5t-62 162.5zM250 490q-10 6 -10 17q0 6 3 14l31 73
q12 27 30 27q8 0 18 -6q16 -9 16 -24q0 -12 -10 -27l-48 -65q-9 -12 -19 -12q-5 0 -11 3z" />
    <glyph glyph-name="ocircumflex" unicode="&#xf4;" 
d="M429 217q0 80 -48 132.5t-121 52.5q-74 0 -122 -52.5t-48 -132.5t48 -132.5t122 -52.5q73 0 121 52.5t48 132.5zM478 217q0 -98 -62 -162.5t-156 -64.5q-95 0 -157 64.5t-62 162.5t62 162.5t157 64.5q94 0 156 -64.5t62 -162.5zM260 559l-65 -66q-7 -8 -17 -9h-1
q-8 0 -14 7q-7 7 -7 15.5t7 17.5l72 81q12 14 25 14q11 0 25 -14l71 -81q8 -9 8 -18q0 -8 -7 -15t-15 -7t-18 9z" />
    <glyph glyph-name="otilde" unicode="&#xf5;" 
d="M90 217q0 -80 48 -132.5t122 -52.5q73 0 121 52.5t48 132.5t-48 132.5t-121 52.5q-74 0 -122 -52.5t-48 -132.5zM41 217q0 98 62 162.5t157 64.5q94 0 156 -64.5t62 -162.5t-62 -162.5t-156 -64.5q-95 0 -157 64.5t-62 162.5zM260 514l-24 11q-9 5 -17.5 6.5t-13.5 2
t-12.5 -3.5t-9 -5t-10 -8.5t-9.5 -8.5q-8 -7 -15 -7q-8 0 -14 9q-6 7 -6 14q0 14 20 28q27 22 59 22q24 0 52 -13l24 -12q6 -3 11.5 -5t10.5 -2t8.5 -0.5t8.5 1.5t7 2.5t6.5 4.5t6 5t7 6t6.5 6q7 5 15.5 5t12.5 -7q6 -7 6 -15q0 -13 -19 -28q-26 -20 -58 -20q-25 0 -53 12z
" />
    <glyph glyph-name="odieresis" unicode="&#xf6;" 
d="M90 217q0 -80 48 -132.5t122 -52.5q73 0 121 52.5t48 132.5t-48 132.5t-121 52.5q-74 0 -122 -52.5t-48 -132.5zM41 217q0 98 62 162.5t157 64.5q94 0 156 -64.5t62 -162.5t-62 -162.5t-156 -64.5q-95 0 -157 64.5t-62 162.5zM141 525v28q0 12 9 21t20 9t20 -9t9 -21v-28
q0 -12 -9 -21t-20 -9t-20 9t-9 21zM321 525v28q0 12 9 21t20 9t20 -9t9 -21v-28q0 -12 -9 -21t-20 -9t-20 9t-9 21z" />
    <glyph glyph-name="oslash" unicode="&#xf8;" 
d="M461 388l-28 -29q45 -59 45 -142q0 -98 -62 -162.5t-156 -64.5q-80 0 -138 47l-27 -28q-10 -10 -19.5 -10t-18.5 10q-9 8 -9 17t11 20l27 28q-45 61 -45 143q0 98 62 162.5t157 64.5q79 0 137 -47l28 28q10 11 19 11l19 -11q8 -8 8 -17t-10 -20zM90 217q0 -62 29 -108
l247 255q-46 38 -106 38q-74 0 -122 -52.5t-48 -132.5zM429 217q0 60 -29 107l-247 -255q45 -37 107 -37q73 0 121 52.5t48 132.5z" />
    <glyph glyph-name="ugrave" unicode="&#xf9;" horiz-adv-x="487" 
d="M244 -10q-83 0 -128.5 46.5t-45.5 119.5v254q0 28 24 28t24 -28v-235q0 -72 31 -106t95 -34q63 0 94 34t31 106v235q0 28 24 28t24 -28v-254q0 -73 -45 -119.5t-128 -46.5zM254 490q-5 -3 -10 -3q-11 0 -20 12l-49 65q-10 15 -10 26q0 15 17 25q9 6 18 6q17 0 29 -27
l32 -73q3 -8 3 -14q0 -11 -10 -17z" />
    <glyph glyph-name="uacute" unicode="&#xfa;" horiz-adv-x="487" 
d="M244 -10q-83 0 -128.5 46.5t-45.5 119.5v254q0 28 24 28t24 -28v-235q0 -72 31 -106t95 -34q63 0 94 34t31 106v235q0 28 24 28t24 -28v-254q0 -73 -45 -119.5t-128 -46.5zM233 490q-10 6 -10 17q0 6 3 14l32 73q12 27 29 27q9 0 18 -6q17 -10 17 -25q0 -11 -11 -26
l-48 -65q-9 -12 -20 -12q-5 0 -10 3z" />
    <glyph glyph-name="ucircumflex" unicode="&#xfb;" horiz-adv-x="487" 
d="M244 -10q-83 0 -128.5 46.5t-45.5 119.5v254q0 28 24 28t24 -28v-235q0 -72 31 -106t95 -34q63 0 94 34t31 106v235q0 28 24 28t24 -28v-254q0 -73 -45 -119.5t-128 -46.5zM244 559l-65 -66q-9 -9 -18 -9q-8 0 -15 7q-7 8 -7 16t8 17l72 81q12 14 25 14q12 0 24 -14
l72 -81q8 -9 8 -17t-7 -16q-7 -7 -15 -7t-18 9z" />
    <glyph glyph-name="udieresis" unicode="&#xfc;" horiz-adv-x="487" 
d="M244 -10q-83 0 -128.5 46.5t-45.5 119.5v254q0 28 24 28t24 -28v-235q0 -72 31 -106t95 -34q63 0 94 34t31 106v235q0 28 24 28t24 -28v-254q0 -73 -45 -119.5t-128 -46.5zM125 525v28q0 12 9 21t20 9t20 -9t9 -21v-28q0 -12 -9 -21t-20 -9t-20 9t-9 21zM305 525v28
q0 12 9 21t20 9t20 -9t9 -21v-28q0 -12 -9 -21t-20 -9t-20 9t-9 21z" />
    <glyph glyph-name="yacute" unicode="&#xfd;" horiz-adv-x="532" 
d="M402 18v60q-44 -93 -148 -93q-71 0 -116.5 40t-45.5 117v268q0 28 24 28t24 -28v-257q0 -61 33.5 -92t85.5 -31q66 0 104.5 39.5t38.5 115.5v225q0 28 24 28t24 -28v-399q0 -100 -59 -145.5t-151 -45.5q-38 0 -62 8q-24 7 -24 23q0 9 6 15t15 6q6 0 27.5 -4.5t37.5 -4.5
q162 0 162 155zM260 490q-10 6 -10 17q0 6 3 14l32 73q12 27 29 27q9 0 18 -6q17 -10 17 -25q0 -11 -11 -26l-48 -65q-9 -12 -20 -12q-5 0 -10 3z" />
    <glyph glyph-name="thorn" unicode="&#xfe;" horiz-adv-x="550" 
d="M126 590v-248q17 45 65 74t103 29q91 0 153.5 -61t62.5 -166t-62.5 -166t-153.5 -61q-55 0 -103 29t-65 74v-242q0 -28 -24 -28q-23 0 -23 28v738q0 28 23 28q24 0 24 -28zM123 218q0 -80 48 -132.5t121 -52.5q75 0 122 52t47 133t-47 133t-122 52q-73 0 -121 -52.5
t-48 -132.5z" />
    <glyph glyph-name="ydieresis" unicode="&#xff;" horiz-adv-x="532" 
d="M402 18v60q-44 -93 -148 -93q-71 0 -116.5 40t-45.5 117v268q0 28 24 28t24 -28v-257q0 -61 33.5 -92t85.5 -31q66 0 104.5 39.5t38.5 115.5v225q0 28 24 28t24 -28v-399q0 -100 -59 -145.5t-151 -45.5q-38 0 -62 8q-24 7 -24 23q0 9 6 15t15 6q6 0 27.5 -4.5t37.5 -4.5
q162 0 162 155zM152 525v28q0 12 9 21t20 9t20 -9t9 -21v-28q0 -12 -9 -21t-20 -9t-20 9t-9 21zM332 525v28q0 12 9 21t20 9t20 -9t9 -21v-28q0 -12 -9 -21t-20 -9t-20 9t-9 21z" />
    <glyph glyph-name="OE" unicode="&#x152;" horiz-adv-x="831" 
d="M440 552h-21q-325 0 -325 -264q0 -128 86.5 -187t238.5 -59h21v510zM413 594h353q24 0 24 -21t-24 -21h-277v-226h245q24 0 24 -22q0 -21 -24 -21h-245v-241h276q24 0 24 -21t-24 -21h-352q-177 0 -272.5 72t-95.5 217q0 155 95.5 230t272.5 75z" />
    <glyph glyph-name="oe" unicode="&#x153;" horiz-adv-x="862" 
d="M767 75q11 11 20 11q18 0 18 -19q0 -14 -11 -25q-51 -52 -148 -52q-67 0 -117.5 31.5t-75.5 89.5q-26 -56 -76.5 -88.5t-116.5 -32.5q-95 0 -157 64.5t-62 162.5t62 162.5t157 64.5q66 0 117 -33t76 -90q24 56 72.5 89.5t108.5 33.5q82 0 131.5 -48t49.5 -141
q0 -35 -29 -35h-308v-2q-1 -84 47.5 -134.5t119.5 -50.5q73 0 122 42zM90 217q0 -80 48 -132.5t122 -52.5q73 0 121 52.5t48 132.5t-48 132.5t-121 52.5q-74 0 -122 -52.5t-48 -132.5zM631 400q-54 0 -94.5 -35.5t-54.5 -99.5h284q-7 135 -135 135z" />
    <glyph glyph-name="Ydieresis" unicode="&#x178;" horiz-adv-x="517" 
d="M283 234v-210q0 -28 -25 -28q-24 0 -24 28v210l-215 328q-4 6 -4 12t3 12q6 12 19 12q15 0 29 -23l193 -293l193 293q14 23 29 23q13 0 19 -12q2 -6 2 -11q0 -7 -4 -13zM138 671v28q0 13 9 22t21 9q11 0 20 -9t9 -22v-28q0 -13 -9 -22t-20 -9q-12 0 -21 9t-9 22zM319 671
v28q0 13 9.5 22t20.5 9t20.5 -9t9.5 -22v-28q0 -13 -9.5 -22t-20.5 -9t-20.5 9t-9.5 22z" />
    <glyph glyph-name="circumflex" unicode="&#x2c6;" 
d="M260 559l-65 -66q-7 -8 -17 -9h-1q-8 0 -14 7q-7 7 -7 15.5t7 17.5l72 81q12 14 25 14q11 0 25 -14l71 -81q8 -9 8 -18q0 -8 -7 -15t-15 -7t-18 9z" />
    <glyph glyph-name="tilde" unicode="&#x2dc;" 
d="M260 514l-24 11q-9 5 -17.5 6.5t-13.5 2t-12.5 -3.5t-9 -5t-10 -8.5t-9.5 -8.5q-8 -7 -15 -7q-8 0 -14 9q-6 7 -6 14q0 14 20 28q27 22 59 22q24 0 52 -13l24 -12q6 -3 11.5 -5t10.5 -2t8.5 -0.5t8.5 1.5t7 2.5t6.5 4.5t6 5t7 6t6.5 6q7 5 15.5 5t12.5 -7q6 -7 6 -15
q0 -13 -19 -28q-26 -20 -58 -20q-25 0 -53 12z" />
    <glyph glyph-name="uni2000" unicode="&#x2000;" horiz-adv-x="372" 
 />
    <glyph glyph-name="uni2001" unicode="&#x2001;" horiz-adv-x="745" 
 />
    <glyph glyph-name="uni2002" unicode="&#x2002;" horiz-adv-x="372" 
 />
    <glyph glyph-name="uni2003" unicode="&#x2003;" horiz-adv-x="745" 
 />
    <glyph glyph-name="uni2004" unicode="&#x2004;" horiz-adv-x="248" 
 />
    <glyph glyph-name="uni2005" unicode="&#x2005;" horiz-adv-x="186" 
 />
    <glyph glyph-name="uni2006" unicode="&#x2006;" horiz-adv-x="124" 
 />
    <glyph glyph-name="uni2007" unicode="&#x2007;" horiz-adv-x="124" 
 />
    <glyph glyph-name="uni2008" unicode="&#x2008;" horiz-adv-x="93" 
 />
    <glyph glyph-name="uni2009" unicode="&#x2009;" horiz-adv-x="149" 
 />
    <glyph glyph-name="uni200A" unicode="&#x200a;" horiz-adv-x="41" 
 />
    <glyph glyph-name="uni2010" unicode="&#x2010;" horiz-adv-x="312" 
d="M246 253h-180q-24 0 -24 22t24 22h180q25 0 25 -22t-25 -22z" />
    <glyph glyph-name="uni2011" unicode="&#x2011;" horiz-adv-x="312" 
d="M246 253h-180q-24 0 -24 22t24 22h180q25 0 25 -22t-25 -22z" />
    <glyph glyph-name="endash" unicode="&#x2013;" horiz-adv-x="572" 
d="M506 253h-440q-24 0 -24 22t24 22h440q25 0 25 -22t-25 -22z" />
    <glyph glyph-name="emdash" unicode="&#x2014;" horiz-adv-x="952" 
d="M886 253h-820q-24 0 -24 22t24 22h820q25 0 25 -22t-25 -22z" />
    <glyph glyph-name="quoteleft" unicode="&#x2018;" horiz-adv-x="193" 
d="M74 584q11 7 21 7q8 0 17 -4q18 -10 18 -31q0 -14 -9 -24t-25 -10q-23 0 -35 16.5t-12 41.5q0 40 21.5 65t61.5 25q13 0 13 -10q0 -9 -14 -9q-25 0 -41 -19t-16 -48z" />
    <glyph glyph-name="quoteright" unicode="&#x2019;" horiz-adv-x="193" 
d="M118 608q-11 -7 -21 -7q-8 0 -17 5q-18 9 -18 30q0 14 9 24t25 10q47 0 47 -58q0 -41 -21 -65.5t-62 -24.5q-12 0 -12 10q0 9 13 9q25 0 41 19t16 48z" />
    <glyph glyph-name="quotesinglbase" unicode="&#x201a;" horiz-adv-x="193" 
d="M118 3q-11 -7 -21 -7q-8 0 -17 4q-18 10 -18 31q0 14 9 24t25 10q47 0 47 -58q0 -41 -21 -65.5t-62 -24.5q-12 0 -12 10q0 9 13 9q25 0 41 19t16 48z" />
    <glyph glyph-name="quotedblleft" unicode="&#x201c;" horiz-adv-x="300" 
d="M182 584q11 7 21 7q8 0 17 -4q18 -10 18 -31q0 -14 -9 -24t-25 -10q-23 0 -35 16.5t-12 41.5q0 41 21 65.5t62 24.5q13 0 13 -10q0 -9 -14 -9q-25 0 -41 -19t-16 -48zM74 584q11 7 21 7q8 0 17 -4q18 -10 18 -31q0 -14 -9 -24t-25 -10q-23 0 -35 16.5t-12 41.5
q0 41 21 65.5t62 24.5q13 0 13 -10q0 -9 -14 -9q-25 0 -41 -19t-16 -48z" />
    <glyph glyph-name="quotedblright" unicode="&#x201d;" horiz-adv-x="301" 
d="M118 608q-11 -7 -21 -7q-8 0 -17 5q-18 9 -18 30q0 14 9 24t25 10q47 0 47 -58q0 -41 -21 -65.5t-62 -24.5q-12 0 -12 10q0 9 13 9q25 0 41 19t16 48zM226 608q-11 -7 -21 -7q-8 0 -17 5q-18 9 -18 30q0 14 9 24t25 10q47 0 47 -58q0 -41 -21 -65.5t-62 -24.5
q-12 0 -12 10q0 9 13 9q25 0 41 19t16 48z" />
    <glyph glyph-name="quotedblbase" unicode="&#x201e;" horiz-adv-x="301" 
d="M118 3q-11 -7 -21 -7q-8 0 -17 4q-18 10 -18 31q0 14 9 24t25 10q47 0 47 -58q0 -41 -21 -65.5t-62 -24.5q-12 0 -12 10q0 9 13 9q25 0 41 19t16 48zM226 3q-11 -7 -21 -7q-8 0 -17 4q-18 10 -18 31q0 14 9 24t25 10q47 0 47 -58q0 -41 -21 -65.5t-62 -24.5q-12 0 -12 10
q0 9 13 9q25 0 41 19t16 48z" />
    <glyph glyph-name="bullet" unicode="&#x2022;" horiz-adv-x="316" 
d="M73 275q0 35 25 60t60 25q36 0 60.5 -25t24.5 -60t-24.5 -60t-60.5 -25q-35 0 -60 25t-25 60z" />
    <glyph glyph-name="ellipsis" unicode="&#x2026;" horiz-adv-x="952" 
d="M131 31q0 14 10 24t24 10t24 -10t10 -24t-10 -24t-24 -10t-24 10t-10 24zM753 31q0 14 10 24t24 10t24 -10t10 -24t-10 -24t-24 -10t-24 10t-10 24zM442 31q0 14 10 24t24 10t24 -10t10 -24t-10 -24t-24 -10t-24 10t-10 24z" />
    <glyph glyph-name="uni202F" unicode="&#x202f;" horiz-adv-x="149" 
 />
    <glyph glyph-name="guilsinglleft" unicode="&#x2039;" horiz-adv-x="267" 
d="M214 384l-130 -129l130 -129q10 -10 10 -19q0 -8 -8 -15q-8 -8 -16 -8q-9 0 -18 9l-142 143q-9 8 -9 19t9 19l142 143q9 9 18 9q8 0 16 -8q8 -7 8 -15q0 -9 -10 -19z" />
    <glyph glyph-name="guilsinglright" unicode="&#x203a;" horiz-adv-x="267" 
d="M53 126l129 129l-129 129q-10 10 -10 19q0 8 7 15q9 8 17 8q9 0 17 -9l143 -143q9 -9 9 -19t-9 -19l-143 -143q-8 -9 -17 -9q-8 0 -17 8q-7 7 -7 15q0 9 10 19z" />
    <glyph glyph-name="uni205F" unicode="&#x205f;" horiz-adv-x="186" 
 />
    <glyph glyph-name="Euro" unicode="&#x20ac;" horiz-adv-x="512" 
d="M334 213h-193q19 -83 71 -131t122 -48q40 0 65 8t52 32q13 14 23 14q19 0 19 -18q0 -10 -7 -23q-53 -57 -150 -57q-95 0 -159 60t-84 163h-49q-26 0 -26 24t26 24h43q-1 11 -1 36q0 24 1 36h-43q-26 0 -26 24t26 24h49q20 103 84 163t159 60q97 0 150 -57q7 -13 7 -23
q0 -18 -19 -18q-10 0 -23 14q-27 24 -52 32t-65 8q-70 0 -122 -48.5t-71 -130.5h233q26 0 26 -24t-26 -24h-241q-1 -12 -1 -36q0 -25 1 -36h201q26 0 26 -24t-26 -24z" />
    <glyph glyph-name="trademark" unicode="&#x2122;" horiz-adv-x="471" 
d="M37 599h123q17 0 17 -15q0 -16 -17 -16h-44v-152q0 -17 -18 -17q-17 0 -17 17v152h-44q-16 0 -16 16q0 15 16 15zM305 446q-12 0 -22 17l-43 77v-124q0 -17 -17 -17t-17 17v165q0 19 18 19q15 0 25 -17l56 -98l57 98q10 17 24 17q18 0 18 -19v-165q0 -17 -17 -17t-17 17
v124l-44 -77q-10 -17 -21 -17z" />
    </font>
</defs>
</svg>
